<?xml version="1.0" standalone="no"?>
<!DOCTYPE svg PUBLIC "-//W3C//DTD SVG 1.1//EN" "http://www.w3.org/Graphics/SVG/1.1/DTD/svg11.dtd" >
<!--
2013-9-30: Created.
-->
<svg>
<metadata>
Created by iconfont
</metadata>
<defs>

<font id="iconfont" horiz-adv-x="1024" >
  <font-face
    font-family="iconfont"
    font-weight="500"
    font-stretch="normal"
    units-per-em="1024"
    ascent="896"
    descent="-128"
  />
    <missing-glyph />
    
    <glyph glyph-name="dai" unicode="&#59003;" d="M513.024 830.464q93.184 0 174.592-35.328t141.824-95.744 95.744-142.336 35.328-174.08q0-93.184-35.328-174.592t-95.744-142.336-141.824-96.256-174.592-35.328-174.592 35.328-142.336 96.256-96.256 142.336-35.328 174.592q0 92.16 35.328 174.08t96.256 142.336 142.336 95.744 174.592 35.328zM274.432 522.24q0-35.84 19.968-60.416t48.64-24.576q29.696 0 49.664 24.576t19.968 60.416q0 34.816-19.968 59.392t-49.664 24.576q-28.672 0-48.64-24.576t-19.968-59.392zM638.976 190.464l-256 0 0-63.488 256 0 0 63.488zM674.816 439.296q29.696 0 50.688 24.576t20.992 59.392q0 35.84-20.992 60.416t-50.688 24.576-50.176-24.576-20.48-60.416q0-34.816 20.48-59.392t50.176-24.576z"  horiz-adv-x="1024" />

    
    <glyph glyph-name="kulian" unicode="&#59004;" d="M517.12 842.752q95.232 0 179.2-36.352t145.92-98.304 98.304-145.92 36.352-179.2-36.352-179.2-98.304-145.92-145.92-98.304-179.2-36.352-179.2 36.352-145.92 98.304-98.304 145.92-36.352 179.2 36.352 179.2 98.304 145.92 145.92 98.304 179.2 36.352zM663.552 634.88q-15.36 0-28.16-6.656t-23.04-18.432-15.872-27.648-5.632-33.28q0-35.84 21.504-61.44t51.2-25.6 51.2 25.6 21.504 61.44q0 17.408-5.632 33.28t-15.872 27.648-23.04 18.432-28.16 6.656zM373.76 634.88q-29.696 0-50.688-25.088t-20.992-60.928 20.992-61.44 50.688-25.6 50.176 25.6 20.48 61.44-20.48 60.928-50.176 25.088zM520.192 293.888q-51.2 0-97.28-9.728t-82.944-27.648-62.464-41.472-35.84-51.2q-1.024-1.024-1.024-2.048-1.024-3.072-1.024-8.704t2.56-11.776 7.168-11.264 12.8-6.144q25.6 27.648 62.464 50.176 31.744 19.456 79.36 35.328t114.176 15.872q67.584 0 116.736-15.872t81.92-35.328q37.888-22.528 63.488-50.176 17.408 5.12 19.968 18.944t0.512 18.944-3.072 7.168-1.024 3.072q-26.624 55.296-100.352 88.576t-176.128 33.28z"  horiz-adv-x="1024" />

    
    <glyph glyph-name="shezhi" unicode="&#59005;" d="M513.7533 497.2293c-98.5783 0-178.4905-79.9108-178.4905-178.483 0-98.5742 79.9122-178.483 178.4905-178.483s178.4905 79.9088 178.4905 178.483C692.2437 417.3195 612.3316 497.2293 513.7533 497.2293zM513.7533 219.5905c-54.7642 0-99.1609 44.3929-99.1609 99.1568 0 54.7629 44.3968 99.1568 99.1609 99.1568 54.7652 0 99.1609-44.3949 99.1609-99.1568C612.9142 263.9824 568.5184 219.5905 513.7533 219.5905zM899.2241 408.2656c-10.3444 10.2051-24.5024 24.2276-26.9029 31.9363-2.7133 8.7141 0.7535 28.6995 3.5437 44.7557 5.7513 33.0566 12.2582 70.5502-9.1232 101.1874-21.5753 30.8691-59.5741 36.1945-90.0977 40.4736-15.3782 2.1495-34.4721 4.8407-41.3287 10.0322-6.6238 5.0156-14.8366 22.9295-21.4404 37.3387-13.3625 29.1842-30.0199 65.4956-65.2675 77.4255-7.0885 2.4014-14.6027 3.6215-22.3508 3.6215-25.9305 0-49.2517-13.0931-71.7943-25.7395-14.0211-7.8617-31.452-17.6221-40.7101-17.6221-9.2581 0-26.688 9.7614-40.6921 17.6221-22.5437 12.6464-45.8818 25.7395-71.8143 25.7395-7.7271 0-15.2613-1.2192-22.3488-3.6405-35.2296-11.9109-51.885-48.2223-65.2675-77.4055-6.6058-14.3892-14.8166-32.3231-21.4404-37.3387-6.8367-5.1915-25.9505-7.8827-41.3107-10.0322-30.5416-4.2601-68.5404-9.5865-90.0977-40.4736-21.4014-30.6372-14.8945-68.1308-9.1402-101.1874 2.7902-16.0551 6.275-36.0416 3.5437-44.7557-2.4015-7.7088-16.5595-21.7313-26.8809-31.9363-22.6606-22.4258-50.8597-50.3319-50.8597-89.5093 0-39.2084 28.1991-67.1055 50.8597-89.5313 10.3204-10.2271 24.4794-24.2456 26.8809-31.9144 2.7313-8.7161-0.7535-28.7015-3.5437-44.7756-5.7533-33.0386-12.2602-70.5322 9.1402-101.1694 21.5573-30.907 59.5561-36.2144 90.0977-40.4736 15.3602-2.1695 34.4541-4.8427 41.3107-10.0322 6.6238-5.0336 14.8346-22.9684 21.4404-37.3747 13.3825-29.1682 30.0179-65.4596 65.2855-77.3905 7.0905-2.4014 14.6047-3.6405 22.3308-3.6405 25.9325 0 49.2517 13.0931 71.8143 25.7196 14.0031 7.8627 31.434 17.662 40.6921 17.662 9.2581 0 26.688-9.7984 40.7101-17.662 22.5437-12.6264 45.8638-25.7196 71.7943-25.7196 7.7481 0 15.2633 1.2392 22.3508 3.6405 35.2476 11.9309 51.905 48.2223 65.2675 77.3905 6.6038 14.4052 14.8166 32.3411 21.4404 37.3747 6.8556 5.1895 25.9505 7.8627 41.3107 9.9932 30.5416 4.2991 68.5404 9.6065 90.0957 40.5135 21.4014 30.6372 14.8745 68.0928 9.1422 101.1694-2.7902 16.0731-6.257 36.0216-3.5437 44.7756 2.3995 7.6688 16.5575 21.6873 26.9029 31.9144 22.6386 22.4258 50.8377 50.3219 50.8377 89.5313C950.0628 357.9337 921.8627 385.8408 899.2241 408.2656zM843.4446 285.6307c-22.5627-22.2999-39.1231-39.9799-46.9072-64.847-7.7481-25.041-4.4162-49.6753 1.1802-81.9215 2.1316-12.2577 6.0432-34.7804 4.1074-41.5988-6.315-3.6395-25.5657-6.3517-36.101-7.8437-25.7406-3.5616-54.9071-7.6108-78.4191-25.4078-22.4287-17.0634-34.1653-42.6431-45.553-67.4902-4.5141-9.8583-12.4921-27.2685-18.3393-34.1439-7.3423 2.2095-21.2875 10.0132-30.3517 15.0858-23.1443 12.9752-49.3686 27.6942-79.3096 27.6942-29.9799 0-56.2602-14.757-79.6204-27.8671-8.8114-4.9397-22.7355-12.7254-30.0179-14.9329-5.8503 6.8773-13.8492 24.3055-18.3983 34.2608-11.3478 24.7492-23.0863 50.3299-45.65 67.4902-23.2212 17.5841-52.2338 21.6693-78.2262 25.3508-10.5153 1.452-29.6312 4.1252-36.0611 7.7457-1.9578 7.4769 1.9178 29.6319 4.0654 41.9845 5.5585 32.0912 8.8903 56.7635 1.0473 81.8245-7.6891 24.5554-24.2286 42.2374-46.8122 64.6052-7.4553 7.397-27.3066 27.0357-27.3066 33.1365 0 6.0779 19.8524 25.7296 27.3066 33.1066 21.8471 21.5924 39.1611 40.0678 46.8122 64.6242 7.863 25.089 4.5121 49.7613-1.1043 82.0644-2.1296 12.2777-6.0611 34.8474-4.1254 41.6837 6.332 3.6605 25.6037 6.3437 36.218 7.8257 25.7386 3.6016 54.9451 7.6888 78.2043 25.3508 22.4857 17.0335 34.2042 42.5881 45.65 67.5202 4.5321 9.8663 12.512 27.2875 18.3603 34.1818 7.3813-2.2175 21.3234-10.0402 30.1148-14.9808 23.2042-13.0232 49.4855-27.7802 79.5434-27.7802 29.9999 0 56.3022 14.747 79.5804 27.7902 8.7914 4.9397 22.7375 12.7633 30.0799 14.9808 5.8463-6.9033 13.8252-24.3055 18.3393-34.1818 11.3878-24.8072 23.1443-50.4668 45.6879-67.5302 23.3362-17.682 52.5056-21.7592 78.2043-25.3508 10.5173-1.471 29.6332-4.1552 36.105-7.7757 1.9138-7.5439-1.9398-29.6319-4.0494-41.7547-5.5785-32.1372-8.9283-56.8285-1.1243-81.9255 7.7091-24.7412 25.0621-43.2167 46.8692-64.7341 7.4573-7.395 27.2896-27.0357 27.2896-33.1145C870.7332 312.6564 850.9208 293.0277 843.4446 285.6307z"  horiz-adv-x="1000" />

    
    <glyph glyph-name="icon" unicode="&#58880;" d="M618.202112-73.911552c70.972416 9.96352 97.122304 17.434624 97.122304 47.318016 0 32.37376-37.357568 129.501184-83.428352 244.06016L344.260608 217.466624c-12.45184-23.658496-74.712064-191.763456-74.712064-230.360064 0-42.339328 33.61792-49.810432 103.351296-61.018112l0-17.430528L90.241024-91.34208l0 17.430528c87.16288 17.434624 103.350272 28.643328 149.419008 140.708864L509.865984 700.596992l14.944256 6.22592 83.428352-230.363136c57.276416-155.648 113.309696-311.296 160.626688-430.83264 37.358592-92.142592 47.318016-105.837568 134.480896-119.537664l0-17.430528L618.202112-91.341056 618.202112-73.911552zM497.416192 591.018752c-49.805312-110.8224-98.371584-229.111808-138.217472-333.70624l261.490688 0-120.7808 333.70624L497.416192 591.018752z"  horiz-adv-x="1024" />

    
    <glyph glyph-name="zhuangtai" unicode="&#59051;" d="M510.466048 746.721024c-246.434816 0-446.211072-199.771136-446.211072-446.200832 0-246.424576 199.776256-446.216192 446.211072-446.216192 246.429696 0 446.205952 199.791616 446.205952 446.216192C956.672 546.948864 756.895744 746.721024 510.466048 746.721024zM798.789632 391.21792 478.706688 71.189248c-6.529024-6.57408-17.169408-6.57408-23.663616 0l-47.312896 47.75936c-6.490112 6.554624-17.164288 17.272832-23.653376 23.886848l-110.068736 115.68128c-3.227648 3.28704-4.953088 7.82336-4.953088 12.151808 0 4.303872 1.72544 8.428544 4.953088 11.73504l48.234496 43.470848c3.262464 3.326976 7.629824 4.953088 11.938816 4.932608 4.248576-0.039936 8.482816-1.680384 11.715584-4.932608l109.147136-111.397888c6.495232-6.608896 17.134592-6.608896 23.663616 0l249.137152 248.42752c6.495232 6.549504 17.129472 6.549504 23.62368 0l47.323136-47.798272C805.30944 408.570624 805.30944 397.792 798.789632 391.21792z"  horiz-adv-x="1024" />

    
    <glyph glyph-name="user4add" unicode="&#58881;" d="M896-84l-64 0 0-64c0-35.392-28.608-64-64-64s-64 28.608-64 64l0 64-64 0c-35.392 0-64 28.608-64 64s28.608 64 64 64l64 0 0 64c0 35.392 28.608 64 64 64s64-28.608 64-64l0-64 64 0c35.392 0 64-28.608 64-64S931.392-84 896-84zM585.024 162.976C505.92 139.232 448 66.72 448-20c0-83.52 53.568-153.792 128-180.224L576-212 128-212c-35.328 0-64 28.608-64 64 0 128 123.712 247.424 250.176 294.656C241.152 191.776 192 271.904 192 364L192 428c0 141.376 114.624 256 256 256s256-114.624 256-256l0-64c0-29.824-6.656-57.536-16.128-84.032C639.168 256.8 600.768 215.52 585.024 162.976z"  horiz-adv-x="1024" />

    
    <glyph glyph-name="flag" unicode="&#59006;" d="M784.352 627.776c-15.968 6.624-34.304 2.944-46.496-9.248-53.92-53.888-141.696-53.92-195.68 0-87.264 87.168-229.12 87.168-316.32 0-8.032-7.968-12.512-18.848-12.512-30.176l0-554.656c0-23.552 19.072-42.656 42.656-42.656s42.656 19.104 42.656 42.656l0 194.272c54.24 42.528 133.152 38.88 183.168-11.104 87.264-87.168 229.152-87.168 316.32 0 8.032 8.032 12.512 18.848 12.512 30.176l0 341.344c0 17.28-10.4 32.8-26.336 39.424z"  horiz-adv-x="1024" />

    
    <glyph glyph-name="1" unicode="&#58882;" d="M503.616 809.696l0-253.568 80.192 0L583.808 300l438.464 0C1022.272 300 1047.744 795.68 503.616 809.696zM1022.272 300 583.808 300l0-256.128L529.088 43.872l0-253.632C529.088-209.76 989.12-207.136 1022.272 300zM529.088-209.76l0 253.632L483.2 43.872 483.2 300 2.816 300C2.816 300 4.096-203.36 529.088-209.76zM2.816 300 483.2 300 483.2 410.848c0 0-71.36-57.344-122.368-75.2l-1.28 84.096c0 0 144 79.04 144 136.384L503.552 809.696C503.616 809.696 30.848 809.696 2.816 300zM498.944 809.568l4.608-253.44L512 809.44C512 809.44 556.928 807.2 498.944 809.568z"  horiz-adv-x="1024" />

    
    <glyph glyph-name="ipad" unicode="&#59007;" d="M764.032-148 259.968-148c-46.4 0-83.968 37.632-83.968 83.968L176 664.032C176 710.432 213.632 748 259.968 748l504 0c46.4 0 83.968-37.568 83.968-83.968l0-728C848-110.368 810.368-148 764.032-148zM512-119.968c15.424 0 28.032 12.48 28.032 28.032S527.424-64.032 512-64.032s-28.032-12.48-28.032-28.032S496.576-119.968 512-119.968zM526.016 692 497.984 692c-7.744 0-14.016-6.272-14.016-14.016S490.24 664.032 497.984 664.032l28.032 0c7.744 0 14.016 6.272 14.016 14.016S533.76 692 526.016 692zM792 636l-560 0 0-672 560 0L792 636z"  horiz-adv-x="1024" />

    
    <glyph glyph-name="face" unicode="&#58883;" d="M747.648 216.736c-14.272 6.4-30.72-0.064-36.992-14.208-0.576-1.28-57.856-126.208-200.768-127.808-0.896 0-1.728-0.064-2.624-0.064-134.464 0-192.448 122.816-194.88 128.064-6.4 14.016-22.912 20.224-36.992 13.952-14.08-6.4-20.352-22.912-13.952-37.056 2.944-6.656 74.688-160.96 245.696-160.96 1.152 0 2.304 0.064 3.392 0.064 178.368 2.048 248.32 154.496 251.2 161.024C768.064 193.888 761.664 210.464 747.648 216.736zM512 748C264.576 748 64 547.424 64 300s200.576-448 448-448 448 200.576 448 448S759.424 748 512 748zM512-92c-216.128 0-392 175.872-392 392 0 216.128 175.872 392 392 392 216.128 0 392-175.872 392-392C904 83.872 728.128-92 512-92zM371.584 328.096c30.848 0 55.872 25.024 55.872 55.872 0 30.784-25.024 55.872-55.872 55.872S315.712 414.816 315.712 383.968C315.712 353.184 340.672 328.096 371.584 328.096zM651.584 328.096c30.848 0 55.872 25.024 55.872 55.872 0 30.784-25.024 55.872-55.872 55.872S595.712 414.816 595.712 383.968C595.712 353.184 620.672 328.096 651.584 328.096z"  horiz-adv-x="1024" />

    
    <glyph glyph-name="users" unicode="&#58884;" d="M716.544 17.376l-176.128 97.6c65.408 51.456 83.264 152.64 83.264 209.408L623.68 442.528c0 78.208-103.936 165.312-208.32 165.312-104.32 0-211.008-87.104-211.008-165.312l0-118.08c0-51.648 21.824-156.032 88-209.024l-180.672-97.984c0 0-47.232-20.992-47.232-47.232l0-70.848C64.448-126.88 85.568-148 111.68-148l604.928 0c26.048 0 47.168 21.12 47.168 47.232l0 70.848C763.776-2.016 716.544 17.376 716.544 17.376zM707.904-92.064l-587.52 0 0 50.048c4.032 2.88 9.6 6.272 14.08 8.256 1.344 0.64 2.624 1.28 3.904 1.984l180.672 97.984c16.448 8.896 27.392 25.472 29.056 44.096 1.664 18.688-6.08 36.928-20.736 48.64-46.912 37.632-67.008 120.96-67.008 165.376L260.352 442.528c0 40.192 75.776 109.376 155.072 109.376 80.832 0 152.384-68.224 152.384-109.376l0-118.08c0-43.84-13.632-127.552-61.888-165.44-14.784-11.648-22.72-29.952-21.184-48.704 1.6-18.752 12.416-35.392 28.928-44.352l176.128-97.6c1.536-0.832 3.52-1.728 5.12-2.432 4.096-1.728 9.28-4.672 12.992-7.232L707.904-92.064zM912.32 156.704l-178.688 97.536c65.408 51.52 85.824 152.704 85.824 209.408L819.456 581.792C819.456 660 712.896 748 608.512 748 540.736 748 471.36 711.136 430.976 663.904c23.04-1.408 48.384-1.472 70.336-8.448 29.44 22.976 66.816 36.608 107.2 36.608 80.896 0 155.008-69.12 155.008-110.272l0-118.144c0-43.84-16.256-127.488-64.512-165.44-14.72-11.648-22.72-29.888-21.12-48.64 1.536-18.688 12.416-35.456 28.928-44.416l178.752-97.472c1.472-0.896 3.52-1.792 5.12-2.496 4.096-1.728 9.216-4.736 12.928-7.232l0-49.728-112.96 0c17.088-12.864 22.208-31.232 28.8-56l92.8 0c26.048 0 47.232 21.248 47.232 47.296l0 70.016C959.552 137.248 912.32 156.704 912.32 156.704z"  horiz-adv-x="1024" />

    
    <glyph glyph-name="qian" unicode="&#59062;" d="M580.34176-209.502464c-58.528768-4.818944-127.265792 0-127.265792 0s-350.40768 8.02816-350.40768 287.214592 337.506304 459.13088 337.506304 459.13088l154.349568 0c0 0 320.625664-215.497728 320.625664-464.290816C915.150848-176.281856 580.34176-211.910912 580.34176-209.502464L580.34176-209.502464zM440.174592 555.040512l0 54.629376 154.693632 0 0-54.629376L440.174592 555.040512 440.174592 555.040512zM592.459776 627.867392 442.58304 627.867392 362.816512 807.659264c0 0 47.156224-36.395008 76.172288-36.395008 28.997632 0 78.541824 37.579776 78.541824 37.579776s45.914112-37.579776 74.929152-37.579776c28.977152 0 78.56128 38.687744 78.56128 38.687744L592.459776 627.867392 592.459776 627.867392zM470.910976-50.855168l69.863424 0 0 67.818496 93.39392 0 0 54.89664-93.39392 0 0 29.858816 93.39392 0 0 54.89664-65.830912 0 78.294016 156.813312-76.573696 0-50.653184-105.892864c-5.810176-12.388352-10.284032-24.046592-13.418496-35.018752-2.675712 10.129408-7.14752 21.751808-13.456384 35.018752l-49.678336 105.892864-76.516352 0 77.280256-156.813312-64.874496 0 0-54.89664 92.17024 0 0-29.858816-92.17024 0 0-54.89664 92.17024 0L470.910976-50.855168 470.910976-50.855168z"  horiz-adv-x="1024" />

    
    <glyph glyph-name="task" unicode="&#58885;" d="M673.024 710.048l-126.096 0L546.928 731.472c0 24.832-20.144 44.96-44.976 44.96l-102.4 0c-24.848 0-44.96-20.128-44.96-44.96l0-21.424-126.096 0c-57.2 0-103.744-46.544-103.744-103.728l0-674.24c0-57.168 46.544-103.696 103.744-103.696l444.512 0c57.184 0 103.728 46.528 103.728 103.696l0 674.24C776.768 663.504 730.256 710.048 673.024 710.048zM450.768 756.144c12.384 0 22.432-10.048 22.432-22.432 0-12.368-10.048-22.416-22.432-22.416s-22.416 10.048-22.416 22.416C428.336 746.096 438.368 756.144 450.768 756.144zM329.392 646.336 572.16 646.336l0-94.736L329.392 551.6 329.392 646.336zM673.056-112.336 228.512-112.336c-24.528 0-44.48 19.936-44.48 44.416l0 674.24c0 24.512 19.952 44.464 44.48 44.464l42.4 0 0-105.92c0-28.512 23.184-51.696 51.712-51.696l256.288 0c28.512 0 51.696 23.184 51.696 51.696l0 105.92 42.416 0c24.496 0 44.432-19.952 44.432-44.464l0-674.24 0.032 0C717.504-92.4 697.568-112.336 673.056-112.336zM348.448 393.568l-10.384-12.384c-3.504 8.928-12.144 15.28-22.304 15.28l-68.992 0c-13.232 0-24-10.768-24-24l0-76c0-13.232 10.768-24 24-24l68.992 0c13.232 0 24 10.768 24 24l0 40.64 31.392 37.44c5.264 6.272 4.432 15.6-1.824 20.88C363.04 400.624 353.712 399.808 348.448 393.568zM323.776 296.448 323.776 296.448c-0.016-4.4-3.616-8-8.016-8l-68.992 0c-4.4 0-8 3.616-8 8l0 76c0 4.4 3.6 8 8 8l68.992 0c4.4 0 8-3.6 8-8l0-8.336-19.984-23.824c-5.248-6.288-14.368-6.832-20.352-1.264l-12.32 11.408c-5.968 5.584-15.408 5.232-20.928-0.768-5.584-5.984-5.216-15.36 0.784-20.944l34.56-32.112c2.736-2.56 6.368-3.952 10.08-3.952 0.32 0 0.592 0 0.944 0.016 4.048 0.272 7.808 2.176 10.416 5.264l16.816 20.048L323.776 296.448zM348.448 232.4l-11.472-13.664c-3.984 7.696-11.952 13.04-21.216 13.04l-68.992 0c-13.232 0-24-10.784-24-24l0-76c0-13.232 10.768-24 24-24l68.992 0c13.232 0 24 10.768 24 24l0 44.144 31.392 37.44c5.264 6.272 4.432 15.616-1.824 20.896C363.04 239.488 353.712 238.656 348.448 232.4zM323.776 131.776 323.776 131.776c-0.016-4.4-3.616-8-8.016-8l-68.992 0c-4.4 0-8 3.6-8 8l0 76c0 4.384 3.6 8 8 8l68.992 0c4.4 0 8-3.616 8-8l0-4.816-19.984-23.84c-5.248-6.256-14.368-6.848-20.352-1.248l-12.32 11.408c-5.968 5.6-15.408 5.232-20.928-0.768-5.584-6-5.216-15.392 0.784-20.96l34.56-32.112c2.736-2.576 6.368-3.968 10.08-3.968 0.32 0 0.592 0 0.944 0.048 4.048 0.256 7.808 2.16 10.416 5.248l16.816 20.048L323.776 131.776zM348.448 70.4l-11.904-14.192c-4.128 7.248-11.84 12.224-20.784 12.224l-68.992 0c-13.232 0-24-10.752-24-24l0-76c0-13.216 10.768-24 24-24l68.992 0c13.232 0 24 10.784 24 24l0 45.52 31.392 37.44c5.264 6.272 4.432 15.616-1.824 20.896C363.04 77.504 353.712 76.672 348.448 70.4zM323.776-31.568 323.776-31.568c-0.016-4.384-3.616-8-8.016-8l-68.992 0c-4.4 0-8 3.616-8 8l0 76c0 4.4 3.6 8 8 8l68.992 0c4.4 0 8-3.6 8-8l0-3.472-19.984-23.808c-5.248-6.288-14.368-6.848-20.352-1.28l-12.32 11.424c-5.968 5.584-15.408 5.232-20.928-0.768-5.584-6-5.216-15.376 0.784-20.944l34.56-32.128c2.736-2.56 6.368-3.968 10.08-3.968 0.32 0 0.592 0 0.944 0.032 4.048 0.256 7.808 2.16 10.416 5.264l16.816 20.048L323.776-31.568zM668.496 344.544 428.96 344.544c-8.208 0-14.832-6.608-14.832-14.8 0-8.224 6.624-14.832 14.832-14.832l239.552 0c8.208 0 14.832 6.608 14.832 14.832C683.328 337.936 676.704 344.544 668.496 344.544zM668.496 199.424 428.96 199.424c-8.208 0-14.832-6.624-14.832-14.832 0-8.192 6.624-14.816 14.832-14.816l239.552 0c8.208 0 14.832 6.624 14.832 14.816C683.328 192.8 676.704 199.424 668.496 199.424zM668.496 54.288 428.96 54.288c-8.208 0-14.832-6.624-14.832-14.848 0-8.176 6.624-14.8 14.832-14.8l239.552 0c8.208 0 14.832 6.624 14.832 14.8C683.328 47.664 676.704 54.288 668.496 54.288z"  horiz-adv-x="1024" />

    
    <glyph glyph-name="bi" unicode="&#59008;" d="M641.648 643.408 855.36 429.68 385.2-40.528 171.456 173.216 641.648 643.408zM727.136 728.864l213.744-213.728-64.128-64.08L663.008 664.784 727.136 728.864zM150.096 151.824l213.728-213.712L64.608-147.392 150.096 151.824zM809.984 731.568l133.584-133.6c22.112-22.096 20.928-59.216-2.672-82.832-23.648-23.6-60.704-24.784-82.832-2.64l-133.616 133.552c-22.112 22.16-20.928 59.216 2.688 82.816C750.768 752.48 787.824 753.664 809.984 731.568z"  horiz-adv-x="1024" />

    
    <glyph glyph-name="mulu" unicode="&#59085;" d="M887.008-212 136.992-212c-25.152 0-45.536 20.384-45.536 45.536L91.456 674.592c0 25.152 20.384 45.536 45.536 45.536L296 720.128 296 812l45.952-0.064 0-91.808 341.152 0L683.104 812l45.952-0.064 0-91.808 157.984 0c25.152 0 45.536-20.384 45.536-45.536l0-841.056C932.544-191.616 912.16-212 887.008-212zM888.416 653.248c0 12.608-10.176 22.784-22.752 22.784l-136.64 0 0-92.512-45.952 0.608L683.072 676 341.952 676l0-92.512L296 584.096 296 676 158.336 676c-12.576 0-22.752-10.176-22.752-22.784L135.584-145.12c0-12.608 10.176-22.784 22.752-22.784l707.328 0c12.576 0 22.752 10.176 22.752 22.784L888.416 653.248zM364.64 105.024l432.448 0 0.288-45.216-432.64 0L364.64 105.024zM364.64 287.2l432.448 0 0.288-45.216-432.64 0L364.64 287.2zM364.64 469.344l432.448 0 0.288-45.216-432.64 0L364.64 469.344zM227.904 105.024l68.032 0 0.48-45.216L228.096 59.808 227.904 105.024zM227.904 287.2l68.032 0 0.48-45.216L228.096 241.984 227.904 287.2zM227.904 469.344l68.032 0 0.48-45.216L228.096 424.128 227.904 469.344z"  horiz-adv-x="1024" />

    
    <glyph glyph-name="presentation" unicode="&#59086;" d="M976 716 560 716 560 764c0 26.512-21.488 48-48 48-26.512 0-48-21.488-48-48l0-48L48 716C21.488 716 0 694.512 0 668c0-26.512 21.488-48 48-48l48 0 0-544c0-26.512 21.488-48 48-48l252.112 0-158.064-158.064C229.376-138.752 224-150.752 224-164c0-26.512 21.488-48 48-48 13.248 0 25.264 5.376 33.936 14.064L464-39.888 464-164c0-26.512 21.488-48 48-48 26.512 0 48 21.488 48 48l0 124.112 158.064-158.064C726.752-206.624 738.752-212 752-212c26.512 0 48 21.488 48 48 0 13.248-5.376 25.248-14.064 33.936L627.888 28 880 28c26.512 0 48 21.488 48 48L928 620l48 0c26.512 0 48 21.488 48 48C1024 694.512 1002.512 716 976 716zM832 124 192 124 192 620l640 0L832 124z"  horiz-adv-x="1024" />

    
    <glyph glyph-name="chrome" unicode="&#59103;" d="M258.272 365.472l-146.528 253.792c93.824 117.472 238.24 192.736 400.256 192.736 187.424 0 351.296-100.736 440.544-251.008l-417.76 0c-7.52 0.64-15.104 0.992-22.752 0.992-121.888 0-224.576-83.648-253.728-196.544zM695.296 487.008l293.472 0c22.752-57.92 35.232-120.992 35.232-187.008 0-280.832-226.112-508.8-506.176-511.936l209.408 362.688c29.472 42.368 46.784 93.824 46.784 149.248 0 73.184-30.176 139.424-78.688 187.008zM326.016 300c0 102.56 83.424 186.016 186.016 186.016s186.016-83.424 186.016-186.016c0-102.56-83.456-186.016-186.016-186.016s-186.016 83.456-186.016 186.016zM582.176 47.552l-146.592-253.888c-246.528 36.896-435.616 249.504-435.616 506.304 0 91.232 23.872 176.832 65.696 251.04l209.024-362.048c41.856-89.12 132.48-150.976 237.28-150.976 24.288 0 47.84 3.328 70.176 9.568z"  horiz-adv-x="1024" />

    
    <glyph glyph-name="shezhi1" unicode="&#59009;" d="M960.225968 338.95522c0 7.68196-2.931892 15.362896-8.798747 21.228487-5.864808 5.864568-13.525592 8.797363-21.185353 8.797363l-45.828599 0c-18.997435 0-39.088828 14.81645-44.735663 32.93818l-23.768284 57.732889c-8.930759 16.698311-5.252846 41.340547 8.097754 54.757115l32.522003 32.477692c5.427838 5.427616 8.798747 12.933567 8.798747 21.228487 0 8.293897-3.326905 15.800871-8.798747 21.249977l-55.197351 55.107085c-5.427838 5.427616-12.912607 8.775874-21.185353 8.775874s-15.801518-3.370771-21.229357-8.775874l-32.522003-32.521694c-13.3506-13.394055-38.081854-17.070794-54.803362-8.097422l-57.691251 23.74582c-18.034464 5.602601-32.917016 25.737174-32.917016 44.711318L580.983386 718.202731c0 7.659447-2.932916 15.341407-8.798747 21.206998-5.864808 5.865591-13.525592 8.798387-21.185353 8.798387l-77.95866 0c-7.703765 0-15.363525-2.932796-21.229357-8.798387-5.864808-5.864568-8.797724-13.546527-8.797724-21.206998l0-45.893236c0-18.974144-14.751563-39.108716-32.873012-44.711318l-57.735255-23.74582c-16.764489-8.973372-41.364755-5.339612-54.715354 8.097422l-32.654015 32.499182c-5.427838 5.427616-12.956611 8.754385-21.229357 8.754385-8.272746 0-15.757514-3.369747-21.185353-8.775874l-55.065339-55.063083c-5.427838-5.427616-8.754743-12.912078-8.798747-21.206998 0-8.272407 3.370909-15.779382 8.798747-21.206998l32.479023-32.543184c13.437584-13.438057 17.115497-38.058804 8.097754-54.757115l-23.768284-57.776891c-5.602831-18.120706-25.694225-32.937157-44.690636-32.937157l-45.873626 0.042979c-7.703765 0-15.364549-2.932796-21.229357-8.797363-5.864808-5.865591-8.798747-13.546527-8.798747-21.228487l0-77.932953c0-7.68196 2.932916-15.363919 8.798747-21.228487 5.864808-5.844102 13.525592-8.775874 21.229357-8.775874l45.873626 0c18.996411-0.044002 39.044824-14.859429 44.647655-32.93818l23.812288-57.732889c8.929736-16.742313 5.29685-41.451064-8.097754-54.801117l-32.566007-32.476669c-5.427838-5.427616-8.798747-12.93459-8.798747-21.251 0-8.272407 3.369885-15.800871 8.798747-21.228487l55.196328-55.107085c5.427838-5.428639 12.912607-8.775874 21.186376-8.775874 8.272746 0 15.801518 3.347235 21.229357 8.775874l32.566007 32.499182c13.3506 13.371542 37.949842 17.048281 54.627346 7.988951l57.866243-23.74582c18.121449-5.624091 32.873012-25.714661 32.873012-44.711318l0-45.718251c0-7.68196 2.932916-15.362896 8.797724-21.228487 5.865831-5.843078 13.525592-8.775874 21.229357-8.775874l77.914656 0c7.703765 0 15.364549 2.932796 21.229357 8.775874 5.864808 5.865591 8.798747 13.546527 8.798747 21.228487l0 45.718251c0 18.996656 14.882552 39.087227 32.917016 44.711318l57.779259 23.74582c16.720485 9.060353 41.407735 5.383614 54.846343-7.988951l32.347011-32.476669c5.427838-5.450129 12.912607-8.842389 21.229357-8.842389 8.272746-0.021489 15.801518 3.326768 21.229357 8.775874l55.197351 55.151088c5.471842 5.449106 8.798747 12.95608 8.798747 21.251s-3.370909 15.800871-8.798747 21.228487l-32.522003 32.476669c-13.3506 13.350053-17.028513 38.057781-8.097754 54.801117l23.768284 57.732889c5.646835 18.077727 25.825213 32.894178 44.735663 32.894178l45.828599 0c7.659761 0 15.320545 2.931772 21.185353 8.798387 5.865831 5.864568 8.798747 13.546527 8.798747 21.228487L960.226991 338.95522 960.225968 338.95522zM684.505282 300.042979c0-95.222735-77.169659-172.34523-172.373782-172.34523-95.248127 0-172.418809 77.122495-172.418809 172.34523 0 95.200222 77.170682 172.367743 172.418809 172.367743C607.335623 472.410722 684.505282 395.243201 684.505282 300.042979"  horiz-adv-x="1024" />

    
    <glyph glyph-name="phone" unicode="&#59010;" d="M712.772916 745.961958 311.22606 745.961958c-36.910157 0-66.930104-32.181957-66.930104-71.753207l0-747.422847c0-39.572274 30.018924-71.753207 66.930104-71.753207l401.546856 0c36.932671 0 66.930104 32.181957 66.930104 71.753207l0 747.422847C779.704044 713.780001 749.706611 745.961958 712.772916 745.961958zM384.129454 689.027248c0 2.825348 4.581534 5.116531 10.233491 5.116531l237.417003 0c5.651957 0 10.233491-2.291183 10.233491-5.116531l0-11.256368c0-2.825348-4.581534-5.116531-10.233491-5.116531l-237.417003 0c-5.651957 0-10.233491 2.291183-10.233491 5.116531L384.129454 689.027248zM512-101.954675c-20.317574 0-36.788379 16.4783-36.788379 36.805254 0 20.326954 16.470805 36.805254 36.788379 36.805254s36.788379-16.4783 36.788379-36.805254C548.788379-85.476375 532.317574-101.954675 512-101.954675zM311.22606 66.935873 311.22606 602.443263l401.55402 0 0.048097-535.50739L311.22606 66.935873z"  horiz-adv-x="1024" />

    
    <glyph glyph-name="user" unicode="&#58886;" d="M992.48078-98.710634c0 0 0.049951-0.049951 0.049951-0.099902 0-23.576976-19.181268-42.708293-42.833171-42.708293L122.130732-141.518829c-23.626927 0-42.808195 19.131317-42.808195 42.708293 0 0.049951 0.024976 0.099902 0.024976 0.099902L79.297561-98.710634c0 0 0 155.747902 113.988683 212.36761 72.104585 35.815024 44.331707 6.743415 132.89522 43.40761 88.538537 36.589268 109.493073 49.37678 109.493073 49.37678l0.824195 84.392585c0 0-33.16761 25.325268-43.457561 104.697756-20.754732-5.994146-27.573073 24.326244-28.821854 43.63239-1.098927 18.65678-11.988293 76.874927 13.312 71.605073-5.169951 38.862049-8.891317 73.927805-7.068098 92.509659 6.343805 65.186341 69.23239 133.294829 166.11278 138.264976 113.963707-4.970146 159.094634-73.028683 165.463415-138.215024 1.798244-18.581854-2.222829-53.672585-7.417756-92.484683 25.325268 5.194927 14.286049-52.948293 13.062244-71.580098-1.098927-19.281171-8.117073-49.501659-28.821854-43.532488-10.339902-79.372488-43.507512-104.522927-43.507512-104.522927l0.79922-83.943024c0 0 20.954537-11.963317 109.493073-48.52761 88.588488-36.689171 60.790634-9.265951 132.920195-45.105951 113.963707-56.594732 113.963707-212.342634 113.963707-212.342634L992.48078-98.710634z"  horiz-adv-x="1024" />

    
    <glyph glyph-name="starb" unicode="&#58887;" d="M1020.192 410.176c-8.864 25.568-31.616 44.288-59.008 48.352l-266.432 39.616L578.944 738.592C566.752 763.84 540.672 780 512 780s-54.752-16.16-66.944-41.408L329.248 498.144 62.784 458.528c-27.36-4.064-50.112-22.784-58.944-48.352-8.8-25.632-2.144-53.856 17.184-73.12l195.264-194.944-45.28-270.432c-4.608-27.232 7.2-54.56 30.336-70.496 12.704-8.736 27.648-13.184 42.592-13.184 12.288 0 24.608 3.008 35.776 8.992L512-77.952l232.32-125.056c11.168-5.984 23.488-8.992 35.744-8.992 14.944 0 29.888 4.448 42.624 13.184 23.136 15.936 34.88 43.264 30.304 70.496L807.68 142.112l195.328 194.944C1022.304 356.352 1028.928 384.576 1020.192 410.176L1020.192 410.176z"  horiz-adv-x="1024" />

    
    <glyph glyph-name="zengjiazicaidan" unicode="&#59114;" d="M446.750812-17.462329 446.750812-80.922662 192.899075-80.922662 192.899075 617.083705 637.141661 617.083705 637.141661 807.466754 2.569627 807.466754 2.569627 617.083705 129.496519 617.083705 129.496519-144.38402 192.899075-144.38402 446.750812-144.38402 446.750812-207.844354 1017.858888-207.844354 1017.858888-17.462329ZM637.141661 172.888997 637.141661 299.810688 764.068552 299.810688 764.068552 363.272046 637.141661 363.272046 637.141661 490.193737 573.677703 490.193737 573.677703 363.272046 446.750812 363.272046 446.750812 299.810688 573.677703 299.810688 573.677703 172.888997Z"  horiz-adv-x="1024" />

    
    <glyph glyph-name="search" unicode="&#58999;" d="M950.149059-96.196531 679.876679 175.727649c50.381475 60.327994 80.71249 137.979538 80.71249 222.724641 0 192.031595-155.671717 347.704097-347.719367 347.704097-192.032299 0-347.704017-155.671479-347.704017-347.704097 0-192.032618 155.67274-347.704097 347.704017-347.704097 87.264988 0 167.015531 32.148188 228.067457 85.23936l269.864065-271.526113c10.863864-10.865465 28.481825-10.865465 39.347735 0C961.001666-124.672072 961.001666-107.063019 950.149059-96.196531zM412.869802 105.92077c-161.553922 0-292.531226 130.970914-292.531226 292.532543 0 161.559583 130.977303 292.533566 292.531226 292.533566 161.579506 0 292.559879-130.97296 292.559879-292.533566C705.428658 236.891683 574.448284 105.92077 412.869802 105.92077z"  horiz-adv-x="1024" />

    
    <glyph glyph-name="renwu" unicode="&#58988;" d="M859.682607 635.020216l-93.720521 0 0-153.724127-509.657652 0L256.304434 635.020216 164.295903 635.020216c-19.22383 0-34.808784-15.58393-34.808784-34.808784l0-714.358801c0-19.22383 15.58393-34.808784 34.808784-34.808784l695.387727 0c19.22383 0 34.808784 15.58393 34.808784 34.808784L894.492414 600.211433C894.491391 619.435263 878.907461 635.020216 859.682607 635.020216zM782.415826 336.976146l-301.636898-369.311207c1.376347-4.580319-5.431709-5.266957-10.012028-1.52575l-219.46541 179.713035c-4.580319 3.740184-5.266957 10.549264-1.52575 15.129582l36.612872 44.826951c3.740184 4.580319 10.54824 5.266957 15.128559 1.52575L468.054115 69.507442l257.995959 315.880297c3.740184 6.385431 10.549264 7.071046 15.129582 3.330862l42.541909-34.746362C788.30086 350.231031 790.935873 346.731324 782.415826 336.976146zM642.560568 679.817492 642.560568 708.066883c0 28.717042-23.280216 51.997258-51.997258 51.997258L433.162444 760.064141c-28.717042 0-51.997258-23.280216-51.997258-51.997258l0-28.249391-61.132312 0 0-140.192949 382.479111 0 0 140.192949L642.560568 679.817492zM512.118704 591.241131c-31.674397 0-57.352219 25.677822-57.352219 57.352219 0 31.674397 25.677822 57.352219 57.352219 57.352219s57.352219-25.677822 57.352219-57.352219C569.470923 612.279283 543.7931 591.241131 512.118704 591.241131z"  horiz-adv-x="1024" />

    
    <glyph glyph-name="pos" unicode="&#58888;" d="M512.000512-58.393553c0 0-270.990924 299.541167-270.990924 447.993221 0 148.45103 121.325229 268.792862 270.990924 268.792862 149.663648 0 270.988878-120.341832 270.988878-268.792862C782.989389 241.147614 512.000512-58.393553 512.000512-58.393553M512.000512 518.543412c-59.311851 0-107.399055-47.690162-107.399055-106.523105s48.087205-106.529245 107.399055-106.529245c59.316967 0 107.395986 47.692209 107.395986 106.529245C619.396497 470.853249 571.317479 518.543412 512.000512 518.543412"  horiz-adv-x="1024" />

    
    <glyph glyph-name="message" unicode="&#58889;" d="M514.958222 171.829333 0.056889 469.130667 0.056889 529.432889c0 71.111111 57.628444 128.739556 128.739556 128.739556l766.577778 0c71.111111 0 128.739556-57.628444 128.739556-128.739556l0-60.359111L514.958222 171.829333zM514.958222 95.427556 1024.056889 392.672l0-320.796444c0-71.850667-57.628444-130.048-128.739556-130.048L128.796444-58.172444C57.685333-58.172444 0.056889 0.081778 0.056889 71.875556L0.056889 392.672 514.958222 95.427556z"  horiz-adv-x="1025" />

    
    <glyph glyph-name="heart" unicode="&#59011;" d="M514.031-100.587l-379.015 362.714c-12.114 12.916-23.009 27.228-32.347 42.551-9.21 15.099-16.879 31.208-22.816 47.895-10.060 28.319-15.179 70.809-15.179 100.107 0 143.042 116.358 228.32 259.4 228.32 72.010 0 139.913-54.723 188.529-106.179 48.6 51.455 116.519 106.178 188.529 106.178 143.025 0 259.384-85.278 259.384-228.32 0-28.801-4.942-70.84-14.665-98.727-6.209-17.746-14.376-34.881-24.324-50.895-8.359-13.478-18.003-26.25-28.672-37.979l-2.037-2.054-376.786-363.611z"  horiz-adv-x="1024" />

    
    <glyph glyph-name="86" unicode="&#58971;" d="M952.466 370.067l-26.929-26.929c1.043-11.806 1.781-23.655 1.781-35.722 0-229.018-186.314-415.333-415.333-415.333-158.169-0.016-295.71 89.057-365.821 219.559l145.813 0.652 0.072 23.654-183.794-0.738-0.058-13.225-0.695 0c0.188-0.449 0.493-0.941 0.681-1.391l-0.695-169.18 23.67 0.029 0.579 125.402C209.8-51.611 350.731-137.598 511.985-137.584c245.764 0.016 445 199.252 445.015 445C957 328.71 955.392 349.599 952.466 370.067zM511.985 707.931c158.198 0.015 295.739-89.072 365.821-219.56l-145.813-0.651-0.044-23.655 183.78 0.738 0.058 13.211 0.71 0c-0.218 0.464-0.492 0.928-0.71 1.405l0.71 169.178-23.685-0.058-0.564-125.403C814.2 651.596 673.269 737.583 512 737.583c-245.764 0-444.985-199.236-445-445-0.015-21.236 1.593-42.096 4.505-62.535l26.929 26.93c-1.043 11.762-1.782 23.596-1.782 35.619C96.667 521.602 282.996 707.931 511.985 707.931z"  horiz-adv-x="1024" />

    
    <glyph glyph-name="left" unicode="&#58890;" d="M0 769.333333l1024 0 0-85.333333-1024 0 0 85.333333ZM0 556l682.666667 0 0-85.333333-682.666667 0 0 85.333333ZM0 342.666667l1024 0 0-85.333333-1024 0 0 85.333333ZM0 129.333333l682.666667 0 0-85.333333-682.666667 0 0 85.333333ZM0-84l1024 0 0-85.333333-1024 0 0 85.333333Z"  horiz-adv-x="1024" />

    
    <glyph glyph-name="right" unicode="&#58891;" d="M0 769.333333l1024 0 0-85.333333-1024 0 0 85.333333ZM341.333333 556l682.666667 0 0-85.333333-682.666667 0 0 85.333333ZM0 342.666667l1024 0 0-85.333333-1024 0 0 85.333333ZM341.333333 129.333333l682.666667 0 0-85.333333-682.666667 0 0 85.333333ZM0-84l1024 0 0-85.333333-1024 0 0 85.333333Z"  horiz-adv-x="1024" />

    
    <glyph glyph-name="circleremove" unicode="&#58892;" d="M507.849982-116.371012c-231.505631 0-419.158499 187.656961-419.158499 419.147242 0 231.483118 187.652867 419.145196 419.158499 419.145196 231.480049 0 419.128823-187.661054 419.128823-419.145196C926.978804 71.285948 739.33003-116.371012 507.849982-116.371012L507.849982-116.371012zM507.849982-55.792309c198.023052 0 358.562399 160.535253 358.562399 358.567515 0 198.031239-160.539346 358.566492-358.562399 358.566492-198.052728 0-358.591051-160.535253-358.591051-358.566492C149.25893 104.742944 309.797253-55.792309 507.849982-55.792309L507.849982-55.792309zM507.841795 65.366122M356.695377 513.165937l-73.678046-73.678046 140.80591-140.80591L283.01733 157.875049l73.678046-73.678046 140.80591 140.80898 140.807956-140.80898 73.678046 73.678046L571.178309 298.683005l140.80898 140.80591-73.678046 73.678046L497.501286 372.361051 356.695377 513.165937 356.695377 513.165937z"  horiz-adv-x="1024" />

    
    <glyph glyph-name="lock" unicode="&#59068;" d="M820.851719-127.594635 200.779328-127.594635c-22.339798 0-40.440038 18.10024-40.440038 40.441061L160.33929 263.321636c0 22.319331 18.10024 40.420595 40.440038 40.420595l67.400063 0 0 188.718129c0 133.995807 108.629069 242.638179 242.635109 242.638179 134.00911 0 242.639203-108.642372 242.639203-242.638179l0-188.718129 67.398016 0c22.339798 0 40.441061-18.102287 40.441061-40.420595l0-350.477256C861.292779-109.494395 843.191516-127.594635 820.851719-127.594635M470.380602 72.339954l0-78.614475c0-22.338774 18.105357-40.441061 40.433898-40.441061 22.339798 0 40.440038 18.101263 40.440038 40.441061l0 78.614475c24.076348 14.020318 40.441061 39.806611 40.441061 69.662593 0 44.667316-36.201503 80.880075-80.880075 80.880075-44.675502 0-80.877005-36.21276-80.877005-80.880075C429.937494 112.147588 446.302207 86.360272 470.380602 72.339954M672.573627 492.462406c0 89.330538-72.427566 161.759127-161.759127 161.759127-89.342818 0-161.756057-72.428589-161.756057-161.759127l0-188.719152 323.515185 0L672.573627 492.462406z"  horiz-adv-x="1024" />

    
    <glyph glyph-name="shuzi1" unicode="&#59035;" d="M512-183.555556c-266.632533 0-483.555556 216.923022-483.555556 483.555556S245.367467 783.555556 512 783.555556s483.555556-216.923022 483.555556-483.555556S778.632533-183.555556 512-183.555556zM512 726.666667C276.736 726.666667 85.333333 535.264 85.333333 300c0-235.264 191.402667-426.666667 426.666667-426.666667 235.264 0 426.666667 191.402667 426.666667 426.666667C938.666667 535.264 747.264 726.666667 512 726.666667zM517.276444 92.64 517.276444 462.6368l-65.277156 0 0 34.443378 120.001422 10.276978 0-414.72L517.276444 92.637156z"  horiz-adv-x="1024" />

    
    <glyph glyph-name="shuzi2" unicode="&#59074;" d="M512-183.555556c-266.632533 0-483.555556 216.923022-483.555556 483.555556S245.367467 783.555556 512 783.555556s483.555556-216.923022 483.555556-483.555556S778.632533-183.555556 512-183.555556zM512 726.666667C276.736 726.666667 85.333333 535.264 85.333333 300s191.402667-426.666667 426.666667-426.666667 426.666667 191.402667 426.666667 426.666667S747.264 726.666667 512 726.666667zM388.664889 89.306311l0 48.056889c15.926044 37.2224 48.147911 77.778489 96.6656 121.665422l31.388444 28.054756c22.673067 20.738844 38.385778 39.489422 47.143822 56.248889 8.7552 16.759467 13.1328 34.210133 13.1328 52.360533 0 23.148089-7.025778 41.250133-21.080178 54.306133s-32.913067 19.584-56.576 19.584c-10.174578 0-19.925333-0.9728-29.263644-2.915556-9.341156-1.9456-19.322311-5.046044-29.952-9.304178-10.632533-4.263822-24.362667-11.207111-41.184711-20.832711L398.939022 484.860444c36.48 17.223111 72.777956 25.833244 108.888178 25.833244 39.443911 0 70.556444-10.834489 93.334756-32.500622s34.167467-48.708267 34.167467-81.112178c0-21.111467-4.679111-41.019733-14.0288-59.721956-9.352533-18.705067-32.457956-43.795911-69.304889-75.278222l-21.111467-18.056533c-15.374222-12.964978-30.833778-28.7488-46.390044-47.36s-25.463467-38.380089-29.7216-59.306667l178.889956 0 0-48.056889L388.664889 89.300622z"  horiz-adv-x="1024" />

    
    <glyph glyph-name="shuzi3" unicode="&#59075;" d="M512-183.555556c-266.632533 0-483.555556 216.923022-483.555556 483.555556S245.367467 783.555556 512 783.555556s483.555556-216.923022 483.555556-483.555556S778.632533-183.555556 512-183.555556zM512 726.666667C276.736 726.666667 85.333333 535.264 85.333333 300s191.402667-426.666667 426.666667-426.666667 426.666667 191.402667 426.666667 426.666667S747.264 726.666667 512 726.666667zM392.137956 97.501156l0 51.111822c39.131022-15.556267 69.922133-23.332978 92.3648-23.332978 26.146133 0 47.522133 7.640178 64.122311 22.917689 16.597333 15.277511 24.900267 35.043556 24.900267 59.306667 0 23.702756-8.487822 44.071822-25.469156 61.110044-16.978489 17.035378-49.026844 25.554489-96.1536 25.554489l-21.7088 0 0 36.943644 19.165867 0.278756c43.889778 0 73.841778 8.007111 89.861689 24.027022 16.014222 16.014222 24.027022 34.7648 24.027022 56.248889 0 19.072-6.345956 34.349511-19.026489 45.832533-12.686222 11.480178-31.527822 17.223111-56.527644 17.223111-27.039289 0-57.039644-7.685689-90.001067-23.054222l0 47.778133c23.515022 7.958756 41.847467 12.680533 55.000178 14.165333 13.147022 1.481956 26.015289 2.221511 38.610489 2.221511 43.514311 0 75.556978-8.706844 96.110933-26.112 20.5568-17.408 30.833778-40.465067 30.833778-69.165511 0-16.110933-2.963911-30.2336-8.888889-42.362311-5.927822-12.131556-14.907733-23.429689-26.945422-33.888711-12.040533-10.464711-28.706133-19.492978-49.999644-27.081956 26.848711-6.2976 46.805333-14.353067 59.861333-24.1664 13.056-9.819022 22.917689-22.129778 29.582222-36.943644 6.667378-14.816711 10.001067-30.742756 10.001067-47.778133 0-32.221867-11.019378-60.973511-33.055289-86.249244-22.0416-25.278578-58.888533-37.916444-110.555022-37.916444C462.6944 84.1664 430.654578 88.612267 392.137956 97.501156z"  horiz-adv-x="1024" />

    
    <glyph glyph-name="shuzi4" unicode="&#59076;" d="M515.7888-183.555556c-266.632533 0-483.555556 216.923022-483.555556 483.555556s216.923022 483.555556 483.555556 483.555556 483.555556-216.923022 483.555556-483.555556S782.421333-183.555556 515.7888-183.555556zM515.7888 726.666667c-235.264 0-426.666667-191.402667-426.666667-426.666667s191.402667-426.666667 426.666667-426.666667 426.666667 191.402667 426.666667 426.666667S751.055644 726.666667 515.7888 726.666667zM555.096178 94.443378l0 116.388978-184.999822 0 0 41.389511 184.999822 253.334756 51.387733 0 0-250.001067 55.000178 0 0-44.7232-55.000178 0 0-116.388978L555.096178 94.443378zM423.367111 255.555556l135.338667 0 0 182.903467L423.367111 255.555556z"  horiz-adv-x="1024" />

    
    <glyph glyph-name="pie" unicode="&#59069;" d="M459.0592 699.4624c-197.3248-23.4496-353.6896-179.8656-377.1392-377.1392l377.1392 0 0 377.1392zM566.9376 698.6944l0-432.896c0-28.3648-22.9888-51.3536-51.4048-51.3536l-432.896 0c27.6992-211.712 208.5376-375.1936 427.7248-375.1936 238.3872 0 431.7184 193.2288 431.7184 431.7184 0 219.1872-163.4816 400.0256-375.1424 427.7248z"  horiz-adv-x="1024" />

    
    <glyph glyph-name="lock1" unicode="&#59012;" d="M426.66373 150.665639c0 47.144749 38.186824 85.331572 85.33392 85.331572 47.147097 0 85.331572-38.186824 85.331572-85.331572 0-30.0836-15.577162-56.539416-39.036829-71.684532 0 0 8.335684-50.356922 17.709219-109.652514 0-17.700531-14.292762-31.992589-32.001981-31.992589l-64.003962 0c-17.706871 0-31.997285 14.292058-31.997285 31.992589l17.709219 109.652514c-23.462015 15.145115-39.043873 41.60328-39.043873 71.684532zm-85.331572 234.669455l0 149.330838c0 94.291845 76.371299 170.670189 170.665493 170.670189 94.294193 0 170.670189-76.378344 170.670189-170.670189l0-149.330838-341.335681 0zm-106.668105 149.330838l0-149.330838-63.999736 0C123.517455 385.335094 85.328048 347.148271 85.328048 300.001174L85.328048-126.670306C85.328048-173.81529 123.517455-212 170.664317-212l682.666667 0c47.144749 0 85.340965 38.18471 85.340965 85.329694l0 426.67148c0 47.147097-38.196216 85.33392-85.340965 85.33392l-63.99457 0 0 149.330838c0 153.169949-124.171162 277.334067-277.336415 277.334067-153.165253 0-277.335946-124.16177-277.335946-277.334067"  horiz-adv-x="1024" />

    
    <glyph glyph-name="unlock" unicode="&#59013;" d="M426.66373 150.665639c0 47.144749 38.186824 85.331572 85.33392 85.331572 47.147097 0 85.331572-38.186824 85.331572-85.331572 0-30.0836-15.577162-56.539416-39.036829-71.684532 0 0 8.335684-50.356922 17.709219-109.652514 0-17.700531-14.292762-31.992589-32.001981-31.992589l-64.003962 0c-17.706871 0-31.997285 14.292058-31.997285 31.992589l17.709219 109.652514c-23.462015 15.145115-39.043873 41.60328-39.043873 71.684532zM85.328048-126.670306C85.328048-173.81529 123.517455-212 170.664317-212l682.666667 0c47.144749 0 85.340965 38.18471 85.340965 85.329694l0 426.67148c0 47.147097-38.196216 85.33392-85.340965 85.33392l-511.998826 0 0 149.330838c0 94.291845 76.371299 170.670189 170.665493 170.670189 94.294193 0 170.670189-76.378344 170.670189-170.670189l0-10.662631c0-29.440226 23.894061-53.336635 53.327243-53.336635 29.437878 0 53.341331 23.896409 53.341331 53.336635l0 10.662631c0 153.169949-124.171162 277.334067-277.336415 277.334067C358.811264 812 234.665931 687.835882 234.665931 534.665933l0-149.330838-63.999736 0C123.520038 385.335094 85.3308 347.148271 85.3308 300.001174l0-426.67148L85.328048-126.670306"  horiz-adv-x="1024" />

    
    <glyph glyph-name="jiemianzhuti" unicode="&#58973;" d="M764.019314 759.748261 259.980686 759.748261c-112.841967 0-204.313937-91.47197-204.313937-204.313937l0-510.826745c0-112.841967 91.47197-204.313937 204.313937-204.313937l504.038628 0c112.841967 0 204.313937 91.47197 204.313937 204.313937L968.333251 555.434324C968.333251 668.276291 876.861282 759.748261 764.019314 759.748261zM828.003601 399.810459l-49.989033-50.030935c-6.913823-6.913823-18.143547-6.913823-25.015468 0l-62.55962 62.517718 0-344.308372-10.182175-8.925117c-24.470742-10.391685-90.592029-17.850233-168.278255-17.850233s-143.765611 7.458548-168.278255 17.850233l-10.182175 8.925117L333.518619 412.297242l-62.55962-62.517718c-6.913823-6.913823-18.101645-6.913823-25.015468 0L195.996399 399.810459c-6.913823 6.913823-6.913823 18.101645 0 25.015468l133.918651 133.918651 3.64547 0 91.011048 0c8.296587-40.728701 44.290367-71.400933 87.449382-71.400933s79.194697 30.672232 87.449382 71.400933l91.011048 0 3.64547 0 133.918651-133.918651C834.959326 417.912104 834.959326 406.724282 828.003601 399.810459z"  horiz-adv-x="1024" />

    
    <glyph glyph-name="baocun" unicode="&#59087;" d="M120.608915 80.620547c0-82.652442 60.3546-151.285588 139.261741-164.609035l0 359.589798 501.368872 0 0-359.589798c78.917374 13.323447 139.271974 81.956593 139.271974 164.609035l0 445.670316c0 82.642209-60.3546 151.285588-139.271974 164.598802l0-276.016381-501.368872 0 0 276.016381c-78.907141-13.313214-139.261741-81.956593-139.261741-164.598802L120.608915 80.620547zM956.220291 526.290863l0-445.670316c0-122.868375-99.966783-222.835158-222.835158-222.835158l-445.660082 0c-122.858142 0-222.824925 99.966783-222.824925 222.835158l0 445.670316c0 122.868375 99.966783 222.824925 222.824925 222.824925l445.660082 0C856.253508 749.115787 956.220291 649.159238 956.220291 526.290863zM705.530738-86.505821l0 306.408575-389.951293 0 0-306.408575 69.635987 0 0 236.752122 83.563184 0 0-236.752122L705.530738-86.505821zM705.530738 470.582073 705.530738 693.406998l-389.951293 0 0-222.824925L705.530738 470.582073zM440.924221-86.505821l0 208.90796-27.854395 0 0-208.90796L440.924221-86.505821z"  horiz-adv-x="1024" />

    
    <glyph glyph-name="menu1" unicode="&#58964;" d="M491.464803 592.7939046700001c48.937572 0 88.611154 39.684838 88.611154 88.62241 0 48.938596-39.673581 88.623433-88.611154 88.623433-48.962132 0-88.63469-39.684838-88.63469-88.623433C402.830113 632.47874167 442.503694 592.7939046700001 491.464803 592.7939046700001zM491.464803 473.44114034c-48.962132 0-88.63469-39.684838-88.63469-88.62241 0-48.936549 39.673581-88.621387 88.63469-88.621387 48.937572 0 88.611154 39.684838 88.611154 88.621387C580.075957 433.75630234 540.403398 473.44114034 491.464803 473.44114034zM491.464803 176.85583600999996c-48.962132 0-88.63469-39.684838-88.63469-88.62241 0-48.938596 39.673581-88.623433 88.63469-88.623433 48.937572 0 88.611154 39.684838 88.611154 88.623433C580.075957 137.17099800999995 540.403398 176.85583600999996 491.464803 176.85583600999996z"  horiz-adv-x="1024" />

    
    <glyph glyph-name="infenicon15" unicode="&#59047;" d="M146.688 143.392C134.656 155.488 128 171.232 128 188L128 411.936C128 428.64 134.656 444.576 146.688 456.608c12.48 12.416 29.184 19.264 46.976 19.264L374.4 475.872C392.32 475.936 408.128 470.24 421.44 456.544 433.472 444.512 440.064 428.64 440 411.936l-246.4 0L192 188l248.064 0c0-35.264-29.44-63.872-65.6-63.872L193.6 124.128C175.808 124.128 159.168 130.976 146.688 143.392L146.688 143.392zM602.624 143.52 602.624 143.52c-12.032 12.032-18.688 27.904-18.624 44.608l246.4 0L832 411.936 584 411.936c0 35.328 29.44 64 65.6 64l180.8-0.064c17.792 0.064 34.496-6.72 46.912-19.264l0 0C889.344 444.576 896 428.704 896 411.936l0-223.808c0-16.896-6.656-32.768-18.688-44.736-12.48-12.352-29.184-19.264-46.976-19.264l-180.736 0C631.744 124.128 615.04 130.976 602.624 143.52zM650.688 268 357.312 268 357.312 332l293.312 0L650.688 268z"  horiz-adv-x="1024" />

    
    <glyph glyph-name="douban" unicode="&#59104;" d="M512.24457 745.018469c-246.678192 0-446.650643-199.972451-446.650643-446.650643s199.972451-446.650643 446.650643-446.650643 446.650643 199.972451 446.650643 446.650643S758.922762 745.018469 512.24457 745.018469zM306.149679 497.696618l422.425915 0 0-47.583738L306.149679 450.112879 306.149679 497.696618zM691.859367 400.472296l0-186.025811L342.862835 214.446485 342.862835 400.472296 691.859367 400.472296zM740.538043 60.154423 294.184159 60.154423l0 47.067992 130.079614 0c-11.915377 25.021883-27.428699 51.916417-46.690392 80.807421l46.690392 18.503423c18.538215-27.436886 35.054377-60.569494 49.711192-99.311867l88.351234 0c17.486256 29.893844 32.868595 63.049988 46.067198 99.311867l50.764174-18.503423c-13.279445-30.601972-27.609825-57.561997-42.795689-80.807421l124.177184 0L740.539067 60.154423zM393.480676 352.919257l248.288876 0 0-90.944292-248.288876 0 0 90.944292Z"  horiz-adv-x="1024" />

    
    <glyph glyph-name="dayinji" unicode="&#59014;" d="M287.744 548.832q-27.648-1.024-54.272-1.024l-84.992 0q-18.432 0-37.376-6.144t-33.28-18.944-23.552-32.768-9.216-46.592l0-77.824 933.888 0 0 41.984q0 16.384-0.512 30.72t-0.512 18.432q0 13.312-5.12 29.696t-17.408 30.208-32.256 23.04-50.688 9.216l-136.192 0 0-99.328-448.512 0 0 99.328zM977.92 310.24l0-53.248q0-23.552 0.512-53.248t0.512-59.392-10.752-48.64-26.624-30.72-33.792-16.384-32.256-4.608q-14.336-1.024-30.208-0.512t-30.208 0.512l-32.768 0-46.08 131.072-449.536 0-45.056-131.072-29.696 0-34.816 0q-20.48 0-46.08 1.024-25.6 0-41.984 9.728t-26.112 23.552-13.824 30.208-4.096 30.72l0 171.008 932.864 0zM166.912 245.728q-12.288 0-21.504-8.704t-9.216-22.016 9.216-22.016 21.504-8.704q13.312 0 22.528 8.704t9.216 22.016-9.216 22.016-22.528 8.704zM323.584 118.752q-8.192-26.624-14.336-49.152-5.12-19.456-10.752-37.888t-7.68-25.6-3.072-15.36 1.024-14.848 9.728-10.752 22.016-4.096l37.888 0 68.608 0 82.944 0 81.92 0 65.536 0 36.864 0q23.552 0 34.816 12.288t2.048 38.912q-5.12 13.312-9.728 31.232t-9.728 35.328q-5.12 19.456-11.264 39.936l-376.832 0zM344.064 502.752l0 233.472q0 11.264 2.56 23.552t10.24 22.016 20.992 15.872 34.816 6.144l192.512 0q31.744 0 52.736-14.848t20.992-53.76l0-232.448-334.848 0z"  horiz-adv-x="1024" />

    
    <glyph glyph-name="jinggao" unicode="&#59064;" d="M946.399621 6.532155c0 0-338.714352 579.191308-382.716518 651.846048-51.757804 62.370513-111.540376 0-111.540376 0s-300.852022-519.839549-356.251773-613.983719c-77.125565-109.543905 12.925381-128.594797 12.925381-128.594797s744.461399 0 821.209364 0C984.084918-63.785354 946.399621 6.532155 946.399621 6.532155zM511.674589 35.134587c-24.301476 0-44.002167 19.700691-44.002167 44.002167 0 24.301476 19.700691 44.002167 44.002167 44.002167 24.301476 0 44.002167-19.700691 44.002167-44.002167C555.676755 54.835278 535.976064 35.134587 511.674589 35.134587zM555.676755 216.172803c0-24.301476-19.700691-44.002167-44.002167-44.002167-24.301476 0-44.002167 19.700691-44.002167 44.002167l0 213.870995c0 24.301476 19.700691 44.002167 44.002167 44.002167 24.301476 0 44.002167-19.700691 44.002167-44.002167L555.676755 216.172803z"  horiz-adv-x="1024" />

    
    <glyph glyph-name="link" unicode="&#59048;" d="M379.047454 346.820352l-44.629453 44.547589L93.402785 150.794793l44.629453-44.548612L379.047454 346.820352M111.250268 168.629997l-44.626383-44.547589L312.101739-120.97282l44.629453 44.548612L111.250268 168.629997M289.788547-98.697491l44.629453-44.547589 267.794116 267.327488-44.629453 44.547589L289.788547-98.697491M468.32478 435.916553l-44.627407 44.569078L664.709519 721.081291l44.62843-44.568055L468.32478 435.916553M646.862036 703.245064l44.629453 44.547589 245.50139-245.033739-44.649919-44.526099L646.862036 703.245064M914.656151 525.033219l44.650943-44.547589L691.491489 213.178609l-44.629453 44.546565L914.656151 525.033219M646.862036 480.485631l44.629453-44.569078L379.047454 124.082408l-44.629453 44.547589L646.862036 480.485631"  horiz-adv-x="1024" />

    
    <glyph glyph-name="faceicon" unicode="&#59077;" d="M446.158944 505.02349c11.836583-11.835559 11.836583-31.04404 0-42.8796L317.521169 333.506115c-11.834536-11.834536-31.020504-11.834536-42.856064 0-11.858072 11.858072-11.858072 31.04404 0 42.8796l128.616286 128.637776C415.115927 516.860073 434.323385 516.860073 446.158944 505.02349zM278.082948 501.583135c-11.368932-11.348466-11.368932-29.779234 0-41.148166L401.5694 336.948517c11.368932-11.369955 29.800723-11.369955 41.148166 0 11.368932 11.368932 11.368932 29.7997 0 41.169655L319.253626 501.583135C307.884694 512.951043 289.452903 512.951043 278.082948 501.583135zM749.335918 505.02349c11.857049-11.835559 11.857049-31.04404 0-42.8796L620.718609 333.506115c-11.833513-11.834536-31.04404-11.834536-42.878576 0-11.835559 11.858072-11.835559 31.04404 0 42.8796l128.637776 128.637776C718.314391 516.860073 737.500359 516.860073 749.335918 505.02349zM581.259922 501.583135c-11.368932-11.348466-11.368932-29.779234 0-41.148166l123.485429-123.485429c11.368932-11.369955 29.7997-11.369955 41.168632 0 11.368932 11.368932 11.368932 29.7997 0 41.169655L622.42753 501.583135C611.059622 512.951043 592.628854 512.951043 581.259922 501.583135zM511.999488 702.214595c54.188156 0 106.73186-10.602476 156.170852-31.513738 47.77612-20.207227 90.691535-49.145303 127.556141-86.009909 36.864606-36.864606 65.803705-79.781044 86.010933-127.556141 20.911262-49.438992 31.513738-101.983719 31.513738-156.171875s-10.602476-106.73186-31.513738-156.170852c-20.207227-47.77612-49.145303-90.691535-86.010933-127.556141s-79.781044-65.803705-127.556141-86.010933c-49.438992-20.911262-101.982696-31.513738-156.170852-31.513738s-106.73186 10.602476-156.171875 31.513738c-47.775096 20.207227-90.691535 49.145303-127.556141 86.010933-36.864606 36.864606-65.802682 79.781044-86.009909 127.556141-20.911262 49.438992-31.513738 101.982696-31.513738 156.170852 0 54.18918 10.602476 106.73186 31.513738 156.171875 20.207227 47.77612 49.145303 90.691535 86.009909 127.556141 36.864606 36.864606 79.781044 65.802682 127.556141 86.009909C405.267629 691.611096 457.810309 702.214595 511.999488 702.214595M511.999488 747.240067c-246.472508 0-446.277136-199.804628-446.277136-446.277136 0-246.471484 199.804628-446.277136 446.277136-446.277136 246.471484 0 446.277136 199.805652 446.277136 446.277136C958.276624 547.434415 758.470973 747.240067 511.999488 747.240067L511.999488 747.240067zM771.680832 111.905064c-1.37737 2.894933-14.59337 29.014824-54.166667 54.203506-50.456159 32.115442-119.601982 48.399313-205.5157 48.399313-0.366344 0-0.727571-0.00614-1.092891-0.007163-0.36532 0.001023-0.726547 0.007163-1.092891 0.007163-85.913718 0-155.059542-16.283872-205.5157-48.399313-39.573297-25.188682-52.789297-51.308573-54.166667-54.203506l1.805112-0.858554c-4.706185-11.045567 0.101307-23.936155 11.045567-29.140691 3.121084-1.483794 6.412037-2.186805 9.652847-2.186805 8.416693 0 16.491603 4.743024 20.346397 12.849656 0.36532 0.76748 41.378409 76.590376 217.925335 76.905554 176.546925-0.316202 217.560014-76.138074 217.925335-76.905554 3.855818-8.106632 11.929704-12.849656 20.34742-12.849656 3.240811 0 6.53074 0.703011 9.652847 2.186805 10.943236 5.204535 15.751752 18.095124 11.045567 29.140691L771.680832 111.905064z"  horiz-adv-x="1024" />

    
    <glyph glyph-name="number" unicode="&#59002;" d="M508.295791 808.286887C227.559513 808.286887 0 580.727374 0 300s227.568417-508.286887 508.295791-508.286887c280.71847 0 508.286887 227.568417 508.286887 508.286887S789.014261 808.286887 508.295791 808.286887zM564.57127 26.885843l-66.524383 0L498.046887 450.777322c-16.018922-15.279861-37.024278-30.550817-63.01607-45.821774-25.991791-15.279861-49.338991-26.730852-70.032696-34.370783l0 64.3072c37.202365 17.488139 69.721043 38.680487 97.564939 63.568139 27.834991 24.878748 47.549217 49.027339 59.133774 72.43687l42.86553 0L564.562365 26.885843z"  horiz-adv-x="1028" />

    
    <glyph glyph-name="search1" unicode="&#59000;" d="M992.262-59.396 749.71 146.898c-25.074 22.566-51.89 32.926-73.552 31.926C733.414 245.892 768 332.902 768 428 768 640.078 596.078 812 384 812 171.924 812 0 640.078 0 428c0-212.078 171.922-384 384-384 95.098 0 182.108 34.586 249.176 91.844-1-21.662 9.36-48.478 31.926-73.552l206.294-242.552c35.322-39.246 93.022-42.554 128.22-7.356S1031.508-94.718 992.262-59.396zM384 172c-141.384 0-256 114.616-256 256S242.616 684 384 684s256-114.616 256-256S525.386 172 384 172z"  horiz-adv-x="1024" />

    
    <glyph glyph-name="brush" unicode="&#58893;" d="M398.592 451.832c0 0 146.832 144.424 179.808 126.744s286.544-250.728 284.816-297.576-77.624-96.8-140.104-151.944C654.416 193.424 481 369.344 398.592 451.832zM883.44 681.568 716.84 527.128 826.168 416.064 983.648 586.128ZM80.344 316.472c0 0 157.92-16.472 274.184 78.088l319.304-312.36-185.68-190.888L80.344 316.472z"  horiz-adv-x="1024" />

    
    <glyph glyph-name="pos1" unicode="&#58894;" d="M511.998465 754.954773c44.37465 0 87.387279-8.569166 127.84369-25.468045 39.059598-16.315594 74.138534-39.674605 104.263645-69.426209 30.079062-29.706579 53.682643-64.271816 70.15378-102.734826 17.022699-39.748283 25.653263-81.995479 25.653263-125.569904 0-44.529169-8.991792-87.581708-26.734898-128.029932l-280.355199-446.175829-0.400113-0.635473-0.381693-0.647753c-3.198855-5.425569-10.144034-11.222599-20.042475-11.222599-9.992585 0-16.972557 5.89936-20.173458 11.420097l-0.474814 0.818645-0.503467 0.801249L210.598974 304.117784c-17.594727 40.323381-26.51284 83.245959-26.51284 127.638005 0 43.574425 8.631588 85.821621 25.653263 125.569904 16.47216 38.46301 40.074717 73.027224 70.15378 102.734826 30.124088 29.752628 65.203024 53.110615 104.262622 69.426209C424.611186 746.38663 467.623815 754.954773 511.998465 754.954773M511.998465 808.166695c-210.494085 0-381.124254-168.521135-381.124254-376.410905 0-54.361095 11.661597-106.055454 32.629141-152.701844l282.287201-449.278493c13.150508-22.681582 37.881772-37.942147 66.207911-37.942147 28.120454 0 52.685943 15.032368 65.87943 37.406958L860.245937 278.61904c21.13332 46.793746 32.877805 98.610902 32.877805 153.136749C893.123742 639.646584 722.493573 808.166695 511.998465 808.166695L511.998465 808.166695zM511.998465 566.728854c36.817534 0 71.394027-14.121626 97.361445-39.763632 25.787316-25.464975 39.989783-59.278081 39.989783-95.209432 0-35.936467-14.204513-69.758784-39.995923-95.236038-25.969465-25.651216-60.543911-39.778982-97.355305-39.778982-36.810371 0-71.383794 14.127765-97.353258 39.778982-25.792433 25.477254-39.995923 59.299571-39.995923 95.236038 0 35.931351 14.201443 69.743434 39.989783 95.209432C440.606485 552.607228 475.181955 566.728854 511.998465 566.728854M511.998465 619.940776c-105.247043 0-190.561104-84.23959-190.561104-188.184987 0-103.944374 85.314061-188.226942 190.561104-188.226942 105.249089 0 190.56315 84.282568 190.56315 188.226942C702.561615 535.701187 617.246531 619.940776 511.998465 619.940776L511.998465 619.940776z"  horiz-adv-x="1024" />

    
    <glyph glyph-name="toumingdu" unicode="&#59079;" d="M128 672v-256h256v256h-256zM896 672h-256v-256h256v256zM384 416v-256h256v256h-256zM128-96h256v256h-256v-256zM896-96v256h-256v-256h256z"  horiz-adv-x="1024" />

    
    <glyph glyph-name="yaochi" unicode="&#59070;" d="M884.992 660.928c-48.32 48.448-112.576 75.072-180.992 75.072s-132.672-26.624-180.928-75.008c-48.448-48.384-75.136-112.704-75.072-181.12 0-46.4 13.184-90.368 36.16-129.28l-374.72-374.72c-25.024-25.024-25.024-65.472 0-90.496 12.48-12.48 28.864-18.752 45.248-18.752s32.768 6.272 45.248 18.752l120.064 120.128 74.752-74.752c12.48-12.48 28.864-18.752 45.248-18.752s32.768 6.272 45.248 18.752c25.024 25.024 25.024 65.472 0 90.496l-74.752 74.752 164.096 164.096c38.912-22.976 83.008-36.16 129.408-36.16 68.416 0 132.736 26.688 181.056 75.072 48.32 48.256 74.944 112.512 74.944 180.864 0 68.48-26.688 132.8-75.008 181.056zM794.56 389.504c-48.32-48.448-132.48-48.64-181.056 0.128-24.192 24.064-37.504 56.128-37.504 90.24 0 34.24 13.312 66.368 37.632 90.688 24.128 24.192 56.192 37.44 90.368 37.44 34.112 0.064 66.24-13.248 90.432-37.504 24.192-24.256 37.568-56.384 37.568-90.624 0-34.112-13.312-66.24-37.44-90.368z"  horiz-adv-x="1024" />

    
    <glyph glyph-name="icons17" unicode="&#58895;" d="M874.036966 662.036966C777.339586 758.734345 648.756966 812 512 812S246.660414 758.734345 149.963034 662.036966C53.248 565.339586 0 436.756966 0 300s53.248-265.339586 149.963034-362.036966C246.660414-158.752 375.243034-212 512-212s265.339586 53.265655 362.036966 149.963034C970.752 34.660414 1024 163.243034 1024 300S970.752 565.339586 874.036966 662.036966zM564.859586-102.873379l0 132.466759-105.701517 0 0-132.466759c-181.848276 23.728552-326.285241 168.165517-350.013793 350.013793l132.466759 0 0 105.701517L109.144276 352.841931c23.728552 181.848276 168.165517 326.285241 350.013793 350.013793l0-132.466759 105.701517 0L564.859586 702.855724c181.848276-23.728552 326.285241-168.165517 350.013793-350.013793l-132.466759 0 0-105.701517 132.466759 0C891.144828 65.292138 746.707862-79.144828 564.859586-102.873379zM512 376.093793c-42.01931 0-76.093793-34.074483-76.093793-76.093793 0-42.036966 34.074483-76.093793 76.093793-76.093793 42.036966 0 76.093793 34.074483 76.093793 76.093793C588.093793 342.036966 554.036966 376.093793 512 376.093793z"  horiz-adv-x="1024" />

    
    <glyph glyph-name="zengjiasuojinliang" unicode="&#59115;" d="M101.851201 693.145032l821.99731 0 0-88.485287-821.99731 0 0 88.485287ZM454.891839 527.249701l468.956671 0 0-88.485287-468.956671 0 0 88.485287ZM454.891839 361.353346l468.956671 0 0-88.484264-468.956671 0 0 88.484264ZM454.891839 195.458015l468.956671 0 0-88.485287-468.956671 0 0 88.485287ZM101.851201 29.562684l821.99731 0 0-88.485287-821.99731 0 0 88.485287ZM101.851201 149.229135 101.851201 460.734798 309.523007 304.981455Z"  horiz-adv-x="1024" />

    
    <glyph glyph-name="icon116" unicode="&#59015;" d="M943.644188-15.215696l-351.176649 608.204749c-42.945473 74.36249-113.147387 74.36249-156.092861 0l-351.176649-608.204749c-42.946498-74.431167-7.811716-135.14955 78.012605-135.14955l702.420949 0C951.455904-150.36422 986.555836-89.645838 943.644188-15.215696zM466.187532 420.420965c12.621133 13.644108 28.66175 20.466675 48.233578 20.466675 19.580028 0 35.612444-6.75389 48.241778-20.194018 12.544256-13.473954 18.820484-30.325365 18.820484-50.587035 0-17.430551-26.19759-145.621205-34.929778-238.882082l-63.105666 0c-7.666162 93.259852-36.090106 221.450507-36.090106 238.882082C447.358847 390.061774 453.643275 406.844509 466.187532 420.420965zM561.76804-23.026386c-13.268949-12.928641-29.062535-19.375023-47.345906-19.375023-18.275171 0-34.076957 6.447407-47.346931 19.375023-13.235123 12.89379-19.818859 28.517221-19.818859 46.869269 0 18.249546 6.583736 34.043131 19.818859 47.278254 13.268949 13.235123 29.07176 19.852685 47.346931 19.852685 18.283371 0 34.076957-6.617562 47.345906-19.852685 13.235123-13.235123 19.827059-29.028709 19.827059-47.278254C581.595099 5.48981 575.003163-10.132597 561.76804-23.026386z"  horiz-adv-x="1028" />

    
    <glyph glyph-name="0102undo" unicode="&#58896;" d="M512 777.75c-124.2703125 0-236.75625-50.371875-318.1921875-131.821875l-131.8078125 131.821875 0-337.5 337.5 0-126.1546875 126.140625c61.0875 61.0734375 145.4484375 98.859375 238.6546875 98.859375 186.384375 0 337.5-151.1015625 337.5-337.5 0-100.8140625-44.1984375-191.278125-114.271875-253.125l74.41875-84.375c93.43125 82.4625 152.353125 203.090625 152.353125 337.5 0 248.5265625-201.4734375 450-450 450z"  horiz-adv-x="1024" />

    
    <glyph glyph-name="edit" unicode="&#58897;" d="M383.62112 2.69184l-168.92928 168.92928c-7.7568 7.77472-7.7568 20.36992 0 28.1472l380.0576 380.04224c7.7568 7.76704 20.37248 7.76704 28.14976 0l168.9088-168.9088c7.77216-7.77472 7.77216-20.39296 0-28.16768L411.76832 2.69184C403.9936-5.08032 391.38048-5.08032 383.62112 2.69184zM693.27104 678.3296c23.32672 23.32672 61.13792 23.32672 84.46208 0l112.59392-112.60416c23.32672-23.31648 23.32672-61.12512 0-84.4544l-56.2944-56.2944-197.06112 197.056L693.27104 678.3296zM116.17536-95.82464l56.29696 253.37344 197.05856-197.07648L116.17536-95.82464z"  horiz-adv-x="1024" />

    
    <glyph glyph-name="zitiyanse" unicode="&#59126;" d="M647.622352 93.866223 788.035312-71.775328 929.031557 93.866223ZM285.244045 316.674775l80.683601 260.163321 80.881099-260.163321L285.244045 316.674775M438.626387 676.642173 315.663868 676.642173 131.685693 93.866223l85.248569 0 43.524283 138.698922L473.610156 232.565145l44.234457-138.698922 106.775862 0L438.626387 676.642173M94.96742 34.858294l566.372352 0 0-75.208912-566.372352 0 0 75.208912Z"  horiz-adv-x="1024" />

    
    <glyph glyph-name="color" unicode="&#58898;" d="M809.188-60.677c-95.746-4.946-169.381 74.313-234.996 144.966-48.231 51.925-91.249 98.217-121.522 88.81-37.719-11.723-46.426-76.257-54.818-138.418-10.311-76.372-20.277-150.028-84.146-167.126-21.108-5.662-53.815-8.978-91.965 6.176-35.686 14.153-76.155 44.691-115.163 105.679-41.358 64.649-70.743 151.486-77.445 242.44-5.929 80.346 5.728 164.409 42.245 240.038 37.548 77.83 93.368 139.591 160.215 182.509 68.509 43.976 148.588 68.080 232.447 69.395 232.476 3.574 400.653-152.744 480.732-324.187 25.089-53.726 41.615-109.282 48.746-162.036 7.274-53.784 4.811-104.794-8.22-148.398-23.801-79.802-81.11-134.929-176.111-139.848v0zM615.119 122.318c57.282-61.646 121.551-130.841 191.233-127.239 67.478 3.489 108.262 42.918 125.303 100.047 10.769 36.027 12.688 79.031 6.473 125.008-6.359 46.979-21.309 96.959-44.164 145.853-72.116 154.43-222.508 295.251-429.264 292.049-73.12-1.115-143.031-22.188-202.89-60.617-58.313-37.457-107.144-91.526-140.081-159.806-31.906-66.079-42.016-140.363-36.745-211.816 6.015-81.719 32.048-159.206 68.68-216.449 31.619-49.437 62.35-73.398 88.643-83.834 23.83-9.436 43.992-7.434 56.966-3.975 27.896 7.492 35.4 62.991 43.162 120.548 10.741 79.546 21.882 162.065 93.598 184.339 63.925 19.871 118.228-38.573 179.088-104.108v0zM255.938 192.342c19.676 0 37.433-7.977 50.35-20.816 12.86-12.895 20.822-30.623 20.822-50.237 0-19.644-7.962-37.371-20.822-50.267-12.917-12.838-30.674-20.787-50.35-20.787-19.647 0-37.405 7.949-50.321 20.787-12.859 12.896-20.821 30.623-20.821 50.267 0 19.614 7.962 37.342 20.821 50.237 12.917 12.839 30.674 20.816 50.321 20.816v0zM798.448 264.825c48.345-14.353 80.193-50.724 71.114-81.232-9.079-30.48-55.649-43.576-104.022-29.222-48.346 14.353-80.194 50.724-71.115 81.232 9.080 30.48 55.649 43.576 104.023 29.222v0zM677.27 444.961c43.62 25.304 91.965 23.532 107.975-3.974s-6.358-70.339-49.978-95.644c-43.619-25.305-91.993-23.532-108.003 3.974s6.388 70.31 50.007 95.644v0zM508.891 543.264c16.211 35.855 47.744 56.671 70.427 46.464 22.684-10.237 27.954-47.579 11.743-83.463-16.182-35.884-47.715-56.671-70.427-46.464-22.684 10.237-27.954 47.578-11.743 83.463v0zM319.663 489.166c1.632 39.030 22.969 69.852 47.658 68.823 24.688-1.029 43.39-33.511 41.758-72.54-1.632-39.001-22.969-69.825-47.658-68.794-24.689 1.029-43.39 33.51-41.758 72.511v0z"  horiz-adv-x="1024" />

    
    <glyph glyph-name="ioscolorfilteroutline" unicode="&#58899;" d="M732.39 387.756c2.37 13.056 3.612 26.504 3.612 40.244 0 123.712-100.29 224.002-224.002 224.002S287.998 551.712 287.998 428c0-13.74 1.242-27.188 3.612-40.244C197.232 361.396 127.998 274.788 127.998 172c0-123.712 100.29-224.002 224.002-224.002 62.684 0 119.342 25.758 160 67.254 40.658-41.496 97.316-67.254 160-67.254 123.712 0 224.002 100.29 224.002 224.002C896.002 274.788 826.768 361.394 732.39 387.756zM319.998 428c0 105.87 86.13 192.002 192.002 192.002s192.002-86.132 192.002-192.002c0-11.552-1.026-22.87-2.99-33.866-9.498 1.228-19.18 1.868-29.012 1.868-62.684 0-119.342-25.758-160-67.254-40.658 41.496-97.316 67.254-160 67.254-9.832 0-19.514-0.638-29.012-1.868C321.024 405.13 319.998 416.448 319.998 428zM544.002 172c0-39.16-11.792-75.612-32.002-106.012-20.208 30.4-32.002 66.852-32.002 106.012 0 11.552 1.026 22.87 2.99 33.866 9.498-1.228 19.18-1.868 29.012-1.868s19.514 0.638 29.012 1.868C542.976 194.87 544.002 183.552 544.002 172zM512 235.998c-6.968 0-13.85 0.382-20.628 1.112 5.252 14.524 12.21 28.238 20.628 40.902 8.42-12.664 15.376-26.378 20.628-40.902C525.85 236.38 518.968 235.998 512 235.998zM459.582 243.272c-59.512 16.91-107.332 61.874-128.21 119.62 6.78 0.728 13.66 1.112 20.628 1.112 54.706 0 104.138-23 139.144-59.834C477.694 285.792 466.968 265.298 459.582 243.272zM532.856 304.166c35.006 36.836 84.438 59.836 139.144 59.836 6.968 0 13.85-0.382 20.628-1.112-20.878-57.746-68.7-102.708-128.21-119.62C557.032 265.298 546.306 285.792 532.856 304.166zM352-20.002c-105.872 0-192.002 86.13-192.002 192.002 0 87.704 59.11 161.862 139.584 184.728 23.464-69.966 80.53-124.514 152.028-144.486-2.37-13.054-3.612-26.504-3.612-40.242 0-49.434 16.026-95.118 43.146-132.168C456.138 2.998 406.706-20.002 352-20.002zM672-20.002c-54.708 0-104.138 23-139.144 59.836 27.122 37.048 43.146 82.732 43.146 132.166 0 13.738-1.242 27.188-3.612 40.242 71.498 19.972 128.562 74.52 152.028 144.486 80.474-22.868 139.584-97.026 139.584-184.728C864.002 66.128 777.872-20.002 672-20.002z"  horiz-adv-x="1024" />

    
    <glyph glyph-name="yuanxingweibo" unicode="&#59105;" d="M480.760508 280.693282c-6.337335 0-12.782118-7.615445-12.782118-17.008372s6.445806-17.008372 12.782118-17.008372c6.337335 0 12.783141 7.615445 12.783141 17.008372S487.097844 280.693282 480.760508 280.693282zM435.039187 361.581544c-94.313016-12.972453-163.624615-75.425853-154.812925-139.495054s92.411713-105.489566 186.724729-92.518137c94.313016 12.972453 163.624615 75.425853 154.812925 139.495054C612.952226 333.132608 529.352203 374.553996 435.039187 361.581544zM463.345883 175.350049c-49.180096-9.43079-95.115288 14.56574-102.599749 53.596685-7.484462 39.030945 26.316366 78.316693 75.495438 87.747483s95.115288-14.56574 102.599749-53.596685S512.524956 184.779815 463.345883 175.350049zM399.643026 237.517947A30.046 25.571 0 1 1 399.643026 236.494641ZM527.024182 765.051735c-247.041466 0-447.308629-200.267163-447.308629-447.308629s200.267163-447.308629 447.308629-447.308629 447.308629 200.267163 447.308629 447.308629S774.065647 765.051735 527.024182 765.051735zM720.140481 225.872722c-24.740474-76.105329-169.818687-193.788611-369.047194-122.653481-81.633229 33.096792-134.404106 108.98211-101.452623 196.792015 58.437947 144.663774 264.701684 224.016053 261.952061 112.727411-1.019213-20.385283-1.019213-31.937386 29.559223-15.628956 88.762603 44.927235 122.998335-22.671349 101.926414-63.87375-13.363356-21.064758 14.94948-14.94948 14.94948-14.94948S753.11857 340.202631 720.140481 225.872722zM697.231725 372.443939c5.748934 74.061786-64.482617 61.740156-68.989257 61.211107-4.507664-0.528026-10.371208 3.382027-11.272741 10.371208s4.440126 11.748578 12.400425 12.625552c105.214297 11.116175 88.830141-85.221964 87.815021-92.323709s-4.734838-14.879895-14.20349-12.512988C693.510984 354.182017 698.275497 365.715701 697.231725 372.443939zM799.36587 350.90232c-4.254907-12.258185-13.756305-28.362978-29.193903-24.487717-16.944927 4.629437-14.349823 26.510794-10.897188 40.796148 24.699542 130.322138-110.393249 122.991172-138.620128 122.991172-7.66047 0.727571-22.771633 9.94756-22.650883 24.109094 0.12075 14.159488 17.214057 20.738323 24.915459 22.097274C863.892489 551.939009 801.404296 365.172325 799.36587 350.90232z"  horiz-adv-x="1024" />

    
    <glyph glyph-name="right1" unicode="&#58900;" d="M381.952-9.792c-8.192 0-16.384 3.136-22.656 9.344l-277.312 277.312 45.248 45.248 254.656-254.656 509.056 508.992 45.312-45.248-531.712-531.648c-6.208-6.208-14.4-9.344-22.592-9.344z"  horiz-adv-x="1024" />

    
    <glyph glyph-name="fujian" unicode="&#59016;" d="M301.623281-85.208571c-110.900927 64.038887-149.018484 205.890886-84.878286 316.79079l33.13796 57.482315L283.020915 346.446562l132.500672 229.626351 33.188104 57.432171C494.452191 712.690502 595.849312 739.881804 675.033706 694.139303c79.287752-45.742501 106.47803-147.137576 60.685385-226.374161l-82.896067-143.478094-33.49306-58.094276L503.70323 65.943588c-27.395971-47.571218-88.232811-63.836265-135.805053-36.441318-47.522098 27.496258-63.836265 88.334122-36.340006 135.804029l99.413879 172.24637 19.567381 34.001663 63.226351 109.526575c9.199872 15.857755 29.427311 21.296834 45.285066 12.148129 15.856732-9.199872 21.346978-29.479501 12.148129-45.336233L507.972626 338.41535l-19.619571-34.002686-99.413879-172.195203c-9.198849-15.856732-3.709626-36.085193 12.148129-45.284042 15.857755-9.098561 36.085193-3.710649 45.285066 12.094915l165.689799 287.059546 16.517813 28.716086 13.519412 23.430508 19.619571 34.001663 16.567957 28.665942c27.496258 47.571218 11.182091 108.358938-36.340006 135.804029-47.571218 27.445091-108.410106 11.182091-135.804029-36.391174l-49.758107-86.09709-16.517813-28.717109L323.832939 284.643684l-16.620147-28.717109-33.086792-57.432171c-25.412728-43.963927-27.59757-94.585737-11.740838-138.853598 0.91487-2.33732 1.727406-4.675664 2.744611-7.014007 2.032363-5.082955 4.168084-10.114743 6.811385-14.891717 3.253214-6.302782 7.012984-12.301631 11.079757-18.144931 2.134698-2.998401 4.472018-5.793156 6.810361-8.639079 4.370707-5.489223 9.198849-10.724656 14.434282-15.654109 2.133674-1.983243 4.269396-4.016629 6.556572-5.84637 7.369108-6.351903 15.196674-12.247394 23.989255-17.330349 79.184394-45.742501 180.580492-18.60339 226.322993 60.633195l49.70694 86.14928 132.603006 229.626351 16.516789 28.664918 16.570003 28.717109c9.198849 15.805564 29.427311 21.244643 45.284042 12.146083 15.857755-9.198849 21.295811-29.427311 12.147106-45.284042l-16.567957-28.717109-16.56898-28.716086L618.517429-0.332331C554.426351-111.282379 412.573329-149.299648 301.623281-85.208571z"  horiz-adv-x="1024" />

    
    <glyph glyph-name="kuaijiejian" unicode="&#59121;" d="M905.846154 457.538462l-362.338462 0c0 109.961846 41.472 115.712 110.198154 125.243077C723.534769 592.470154 819.2 605.782154 819.2 772.615385c0 17.408-14.099692 31.507692-31.507692 31.507692S756.184615 790.023385 756.184615 772.615385c0-111.970462-44.228923-118.114462-111.182769-127.409231C575.566769 635.596308 480.492308 622.363077 480.492308 457.538462L118.153846 457.538462c-65.260308 0-118.153846-52.932923-118.153846-118.153846l0-315.076923c0-65.220923 52.893538-118.153846 118.153846-118.153846l787.692308 0c65.260308 0 118.153846 52.932923 118.153846 118.153846l0 315.076923C1024 404.605538 971.106462 457.538462 905.846154 457.538462zM708.923077 339.384615l78.769231 0 0-78.769231-78.769231 0L708.923077 339.384615zM827.076923 221.230769l0-78.769231-78.769231 0 0 78.769231L827.076923 221.230769zM590.769231 339.384615l78.769231 0 0-78.769231-78.769231 0L590.769231 339.384615zM708.923077 221.230769l0-78.769231-78.769231 0 0 78.769231L708.923077 221.230769zM472.615385 339.384615l78.769231 0 0-78.769231-78.769231 0L472.615385 339.384615zM590.769231 221.230769l0-78.769231-78.769231 0 0 78.769231L590.769231 221.230769zM354.461538 339.384615l78.769231 0 0-78.769231L354.461538 260.615385 354.461538 339.384615zM472.615385 221.230769l0-78.769231-78.769231 0 0 78.769231L472.615385 221.230769zM236.307692 339.384615l78.769231 0 0-78.769231L236.307692 260.615385 236.307692 339.384615zM354.461538 221.230769l0-78.769231L275.692308 142.461538l0 78.769231L354.461538 221.230769zM118.153846 339.384615l78.769231 0 0-78.769231L118.153846 260.615385 118.153846 339.384615zM236.307692 221.230769l0-78.769231L157.538462 142.461538l0 78.769231L236.307692 221.230769zM196.923077 24.307692 118.153846 24.307692l0 78.769231 78.769231 0L196.923077 24.307692zM787.692308 24.307692 236.307692 24.307692l0 78.769231 551.384615 0L787.692308 24.307692zM905.846154 24.307692l-78.769231 0 0 78.769231 78.769231 0L905.846154 24.307692zM905.846154 260.615385l-78.769231 0 0 78.769231 78.769231 0L905.846154 260.615385z"  horiz-adv-x="1024" />

    
    <glyph glyph-name="w-content" unicode="&#59043;" d="M0 800v-1024h1024v1024h-1024zM960-160h-896v896h896v-896zM256 544h512v-64h-512v64zM256 309.344h512v-64h-512v64zM256 96h512v-64h-512v64z"  horiz-adv-x="1024" />

    
    <glyph glyph-name="remove" unicode="&#58901;" d="M811.0976 257.038933 213.4464 257.038933l0 85.378133 597.650133 0L811.096533 257.038933z"  horiz-adv-x="1024" />

    
    <glyph glyph-name="xiangxicanshu" unicode="&#59044;" d="M689.903318 412.559589 325.908186 412.559589c-7.738241 0-13.999852-6.274914-13.999852-13.999852l0-27.999704c0-7.738241 6.261611-13.999852 13.999852-13.999852l363.996155 0c7.738241 0 14.000875 6.262634 14.000875 13.999852l0 27.999704C703.904193 406.284675 697.641559 412.559589 689.903318 412.559589zM689.903318 272.561068 325.908186 272.561068c-7.738241 0-13.999852-6.275937-13.999852-14.000875l0-27.998681c0-7.738241 6.261611-14.000875 13.999852-14.000875l363.996155 0c7.738241 0 14.000875 6.262634 14.000875 14.000875l0 27.998681C703.904193 266.286154 697.641559 272.561068 689.903318 272.561068zM689.903318 552.55811 325.908186 552.55811c-7.738241 0-13.999852-6.274914-13.999852-13.999852l0-27.999704c0-7.738241 6.261611-13.999852 13.999852-13.999852l363.996155 0c7.738241 0 14.000875 6.261611 14.000875 13.999852l0 27.999704C703.904193 546.283196 697.641559 552.55811 689.903318 552.55811zM731.902874 748.556039 283.90863 748.556039c-61.850673 0-111.998817-50.14712-111.998817-111.998817l0-672.006204c0-61.84965 50.14712-111.997793 111.998817-111.997793L731.902874-147.446775c61.851697 0 111.998817 50.148144 111.998817 111.997793L843.901691 636.557222C843.902714 698.408919 793.755594 748.556039 731.902874 748.556039zM787.903306-35.448982c0-30.897707-25.075095-55.999408-56.000432-55.999408L283.90863-91.44839c-30.924313 0-55.999408 25.100678-55.999408 55.999408L227.909222 636.557222c0 30.92636 25.074072 55.999408 55.999408 55.999408L731.902874 692.556631c30.925337 0 56.000432-25.073048 56.000432-55.999408L787.903306-35.448982zM689.903318 132.549244 325.908186 132.549244c-7.738241 0-13.999852-6.261611-13.999852-13.999852l0-27.999704c0-7.710612 6.261611-13.999852 13.999852-13.999852l363.996155 0c7.738241 0 14.000875 6.28924 14.000875 13.999852l0 27.999704C703.904193 126.287633 697.641559 132.549244 689.903318 132.549244z"  horiz-adv-x="1024" />

    
    <glyph glyph-name="iconbingtu" unicode="&#59052;" d="M1019.83843 320.021212c-9.693413 265.274719-222.542499 478.073053-487.817218 487.817218-6.140853 2.639044-12.890717 4.16157-20.046588 4.16157-282.276255 0-511.974625-229.647619-511.974625-512.025375 0-282.276255 229.647619-511.974625 511.974625-511.974625 282.327006 0 512.025375 229.647619 512.025375 511.974625C1024 307.079744 1022.528225 313.829608 1019.83843 320.021212zM512.025375-110.49829c-226.348813 0-410.472915 184.124102-410.472915 410.472915s184.124102 410.523666 410.472915 410.523666c0.456758 0 0.812014 0.253754 1.268771 0.253754L513.294147 301.243396l409.508648 0c0-0.456758-0.253754-0.812014-0.253754-1.268771C922.49829 73.625812 738.374188-110.49829 512.025375-110.49829z"  horiz-adv-x="1024" />

    
    <glyph glyph-name="cha" unicode="&#59017;" d="M849.821517 218.624644c0 0 53.94461-4.495384 53.94461 51.697429 0 0 0 80.916914-79.793324 352.885096 0 0-24.723078 79.793324-55.067176 79.793324L446.365652 703.000494c-22.476921 0-79.792301-15.172561-79.792301-57.31538l0-427.059446c0 0 159.582555-118.001531 159.582555-268.596388 4.494361-7.867178-7.867178-55.0682 51.695383-55.0682 0 0 140.480498 15.735379 57.316403 323.666634l214.654848 0L849.82254 218.624644zM278.491247 218.766884c0 0 32.661887-0.421602 32.661887 32.661887l0 433.45204c0 0 0.209778 18.121729-22.968108 18.121729L176.924014 703.00254c0 0-27.393907 0-27.393907-27.393907l-26.549679-430.711626c0 0 0.419556-26.1291 26.971281-26.1291L278.491247 218.766884 278.491247 218.766884z"  horiz-adv-x="1024" />

    
    <glyph glyph-name="26" unicode="&#58902;" d="M512.06805 502.02111c-68.110237 0-123.521245 55.411007-123.521245 123.521245S443.958836 749.064622 512.06805 749.064622c68.111261 0 123.522268-55.411007 123.522268-123.521245S580.17931 502.02111 512.06805 502.02111zM512.06805 711.202293c-47.232744 0-85.658915-38.426171-85.658915-85.658915s38.426171-85.658915 85.658915-85.658915c47.232744 0 85.659939 38.426171 85.659939 85.658915S559.300794 711.202293 512.06805 711.202293zM511.594259 179.172097c-68.110237 0-123.521245 55.411007-123.521245 123.522268 0 68.110237 55.411007 123.521245 123.521245 123.521245 68.111261 0 123.522268-55.411007 123.522268-123.521245C635.116527 234.583105 579.70552 179.172097 511.594259 179.172097zM511.594259 388.35328c-47.232744 0-85.658915-38.426171-85.658915-85.658915 0-47.232744 38.426171-85.659939 85.658915-85.659939 47.232744 0 85.659939 38.427194 85.659939 85.659939C597.254198 349.926086 558.828027 388.35328 511.594259 388.35328zM511.593236-143.676915c-68.110237 0-123.521245 55.411007-123.521245 123.522268 0 68.110237 55.411007 123.521245 123.521245 123.521245 68.111261 0 123.522268-55.411007 123.522268-123.521245C635.115504-88.265908 579.704496-143.676915 511.593236-143.676915zM511.593236 65.504268c-47.232744 0-85.658915-38.427194-85.658915-85.658915 0-47.232744 38.426171-85.659939 85.658915-85.659939 47.232744 0 85.659939 38.427194 85.659939 85.659939C597.253174 27.077074 558.827003 65.504268 511.593236 65.504268z"  horiz-adv-x="1024" />

    
    <glyph glyph-name="ntask" unicode="&#58903;" d="M864 608h-256c-17.664 0-32-14.336-32-32 0-17.6 14.336-32 32-32h256c17.6 0 32 14.4 32 32 0 17.664-14.4 32-32 32zM384 288h128v64h-128v-64zM384 160h128v64h-128v-64zM896 800h-640c-70.72 0-128-57.344-128-128h-64c-35.392 0-64-28.608-64-64v-64c0-35.328 28.608-64 64-64h64v-64h-64c-35.392 0-64-28.608-64-64v-64c0-35.328 28.608-64 64-64h64v-64h-64c-35.392 0-64-28.608-64-64v-64c0-35.328 28.608-64 64-64h64c0-70.656 57.28-128 128-128h640c70.656 0 128 57.344 128 128v704c0 70.656-57.344 128-128 128zM96 544c-17.664 0-32 14.4-32 32 0 17.664 14.336 32 32 32h128c17.6 0 32-14.336 32-32 0-17.6-14.4-32-32-32h-128zM96 288c-17.664 0-32 14.4-32 32 0 17.664 14.336 32 32 32h128c17.6 0 32-14.336 32-32 0-17.6-14.4-32-32-32h-128zM96 32c-17.664 0-32 14.4-32 32 0 17.664 14.336 32 32 32h128c17.6 0 32-14.336 32-32 0-17.6-14.4-32-32-32h-128zM960-32c0-35.328-28.672-64-64-64h-640c-35.392 0-64 28.672-64 64h64c35.392 0 64 28.672 64 64v64c0 35.392-28.608 64-64 64h-64v64h64c35.392 0 64 28.672 64 64v64c0 35.392-28.608 64-64 64h-64v64h64c35.392 0 64 28.672 64 64v64c0 35.392-28.608 64-64 64h-64c0 35.392 28.608 64 64 64h640c35.328 0 64-28.608 64-64v-704zM864 352h-256c-17.664 0-32-14.336-32-32 0-17.6 14.336-32 32-32h256c17.6 0 32 14.4 32 32 0 17.664-14.4 32-32 32zM384 416h128v64h-128v-64zM864 224h-256c-17.664 0-32-14.336-32-32 0-17.6 14.336-32 32-32h256c17.6 0 32 14.4 32 32 0 17.664-14.4 32-32 32zM864 480h-256c-17.664 0-32-14.336-32-32 0-17.6 14.336-32 32-32h256c17.6 0 32 14.4 32 32 0 17.664-14.4 32-32 32zM864 96h-256c-17.664 0-32-14.336-32-32 0-17.6 14.336-32 32-32h256c17.6 0 32 14.4 32 32 0 17.664-14.4 32-32 32zM384 544h128v64h-128v-64zM384 32h128v64h-128v-64z"  horiz-adv-x="1024" />

    
    <glyph glyph-name="remove1" unicode="&#58904;" d="M665.6 641.925v76.155c0 39.526-32.164 71.68-71.68 71.68h-163.84c-39.526 0-71.68-32.154-71.68-71.68v-76.155c-214.866-14.121-215.040-56.965-215.040-56.965v-102.4h737.28v102.4c0 0-0.184 42.844-215.040 56.965zM440.32 707.84h143.36v-62.321c-22.241 0.553-45.978 0.881-71.68 0.881s-49.439-0.328-71.68-0.881v62.321zM194.56 421.12l61.44-634.88h512l61.44 634.88h-634.88zM360.11-111.309c-0.584-0.031-1.167-0.051-1.731-0.051-16.189 0-29.737 12.657-30.648 29.020l-20.48 368.64c-0.942 16.937 12.032 31.437 28.969 32.379 17.029 0.911 31.437-12.032 32.379-28.969l20.48-368.64c0.932-16.947-12.032-31.437-28.969-32.379zM542.72-80.64c0-16.968-13.752-30.72-30.72-30.72s-30.72 13.752-30.72 30.72v368.64c0 16.968 13.752 30.72 30.72 30.72s30.72-13.752 30.72-30.72v-368.64zM696.269-82.34c-0.911-16.364-14.459-29.020-30.638-29.020-0.584 0-1.147 0.020-1.731 0.051-16.937 0.942-29.911 15.432-28.969 32.369l20.48 368.64c0.952 16.947 15.698 29.757 32.369 28.969 16.937-0.942 29.911-15.442 28.969-32.379l-20.48-368.63z"  horiz-adv-x="1024" />

    
    <glyph glyph-name="shoucang" unicode="&#59071;" d="M955.6104 408.802008c-3.797489 11.391445-13.513782 19.655665-25.351388 21.443381l-269.601274 41.657772L540.263717 729.776324c-5.249561 11.168364-16.529465 18.427698-28.925796 18.427698l0 0c-12.396331 0-23.564695-7.147794-28.925796-18.316158L360.9027 472.683944l-269.935895-40.764426c-11.838629-1.786693-21.666462-9.939373-25.463951-21.330818-3.797489-11.279904-1.004887-23.90034 7.370875-32.387641l195.890482-201.474664L221.969441-107.282007c-2.009773-12.06171 3.127224-24.234961 13.066597-31.271214s23.118534-7.818059 33.839713-1.898233l241.12164 132.678812 240.563938-133.572158c4.913916-2.568499 10.163477-3.90903 15.523555-3.90903l0.670266 0c17.645892 0 31.828916 14.295588 31.828916 31.94148 0 3.90903-0.670266 7.706519-2.009773 11.279904l-44.672432 277.865495 196.337667 200.692858C956.503746 385.013209 959.407889 397.522104 955.6104 408.802008z"  horiz-adv-x="1024" />

    
    <glyph glyph-name="genggaizhuti" unicode="&#58974;" d="M692.893418-52.939331 327.253834-52.939331c-23.36515 0-42.354644 18.98847-42.354644 42.354644L284.89919 341.766242l-43.095517-44.50768c-15.600303-16.129352-43.765783-16.624632-59.878762-1.093914L74.257749 400.215446c-8.117888 7.800663-12.706393 18.35402-12.882402 29.718859-0.212848 11.330046 4.006244 22.023596 11.841699 30.142507l169.257915 175.205371c22.236444 23.01211 30.777981 23.01211 34.872229 23.01211L383.937834 658.294292c27.741831 0 32.223912-1.941212 37.201274-7.094582l5.328355-5.542226-0.245593-7.800663c0-43.801599 34.483372-74.296123 83.860966-74.296123 49.342802 0 83.826174 30.494525 83.826174 74.120115l0 7.306406 5.100158 6.211469c4.959965 5.15337 9.442046 7.094582 37.183877 7.094582l106.590644 0c4.130064 0 12.706393 0 34.872229-23.01211l169.276335-175.205371c7.835456-8.117888 12.035104-18.812461 11.859096-30.142507-0.211824-11.329023-4.782933-21.918195-12.900821-29.753651L838.222341 296.200464c-7.906064-7.658424-18.35402-11.859096-29.399587-11.859096l0 0c-11.43647 0-22.553669 4.694929-30.460756 12.883425l-43.024909 44.542472-0.106424-352.351953C735.230666-33.951885 716.242196-52.939331 692.893418-52.939331zM295.910988 392.767823c12.106736 0 25.130354-9.530051 25.130354-30.495548l0-372.857986c0-3.353374 2.841721-6.212492 6.212492-6.212492l365.640608 0.001023c3.40761 0 6.195096 2.788509 6.195096 6.211469L699.089537 362.272275c0 20.965497 13.025665 30.495548 25.130354 30.495548 5.506411 0 13.942547-1.941212 22.801309-11.082406l57.319473-59.331293c3.036149-3.140527 5.611811-3.211135 8.788154-0.176009l107.650789 104.014982c1.588171 1.517563 1.853208 3.388167 1.870604 4.340865 0 0.98749-0.194428 2.859118-1.728364 4.447289L751.643474 610.186621c-5.471618 5.682419-10.377348 9.847276-13.164834 11.964496L636.193045 622.151118c-2.717901 0-5.152347-0.034792-7.342222-0.106424-8.029884-56.225559-55.519478-94.626147-118.767987-94.626147-63.724347 0-111.426789 38.966477-118.945019 94.661963-2.153036 0.034792-4.552689 0.069585-7.199982 0.069585l-102.286618 0c-2.788509-2.117221-7.694239-6.282077-13.199627-11.964496L99.211071 434.981251c-1.517563-1.588171-1.729387-3.459798-1.710968-4.447289 0.017396-0.952698 0.282433-2.823302 1.853208-4.340865l107.685581-104.014982c3.140527-3.035126 5.718235-3.000334 8.770757 0.176009l57.284681 59.296501C281.970488 390.826612 290.405601 392.767823 295.910988 392.767823z"  horiz-adv-x="1024" />

    
    <glyph glyph-name="back" unicode="&#58965;" d="M284.36533965 336.57611279l401.87353623-387.82201376c22.48243594-19.67213144 56.20608896-19.67213144 75.8782204 0 19.67213144 22.48243594 19.67213144 53.39578447-2.81030448 75.8782204L377.10538613 392.78220175l365.33957871 351.28805626c22.48243594 19.67213144 22.48243594 53.39578447 0 73.06791592s-56.20608896 19.67213144-75.87822041 0L264.6932082 429.31615928c-22.48243594-19.67213144-22.48243594-53.39578447 0-73.06791592"  horiz-adv-x="1024" />

    
    <glyph glyph-name="fengge" unicode="&#58996;" d="M833.674257 602.748209l0 21.74628c0 37.96773-30.78412 68.752874-68.752874 68.752874L312.968991 693.247362c-37.96773 0-68.739571-30.78412-68.739571-68.752874l0-26.891464-12.871145 0c-31.689746 0-69.732178-25.684986-69.732178-57.362452l0-125.915781c0-31.67542 38.042431-58.97109 69.732178-58.97109l240.896512 0 0 0.081864 10.125615 0c16.161075 0 29.305443-13.144368 29.305443-29.291117l0-82.038458-42.912345 0 0-336.857051 125.113509 0L593.887009 244.103946l-40.927131 0 0 96.851838c0 31.677467-25.684986 57.362452-57.376779 57.362452l-34.759665 0 0-0.081864L231.359298 398.236372c-16.145725 0-29.291117 13.144368-29.291117 29.291117L202.068182 523.598544c0 16.146749 13.145391 29.291117 29.291117 29.291117l12.871145 0 0-43.545772c0-37.96773 30.771841-68.739571 68.739571-68.739571l451.952392 0c37.96773 0 68.752874 30.771841 68.752874 68.739571l0 48.490388 28.071336 0 0 44.913932L833.674257 602.748209z"  horiz-adv-x="1024" />

    
    <glyph glyph-name="437hezuo" unicode="&#59072;" d="M594.861196-51.930351l-14.810311 14.852266-63.36005-63.817468 14.45727-14.497179c14.915711-14.971993 41.335431-12.912078 58.900481 4.585435C607.612615-93.308761 609.771791-66.897228 594.861196-51.930351zM582.168106 66.047644c-7.225565 7.173376-16.812921 11.124362-26.993794 11.124362-10.287297 0-19.944238-4.02057-27.191292-11.319813l-100.267635-100.990089c-7.211239-7.263427-11.161201-16.898879-11.124362-27.133987 0.036839-10.234085 4.056386-19.840884 11.31879-27.051099 7.226588-7.1744 16.812921-11.125385 26.994818-11.125385 10.287297 0 19.943215 4.02057 27.190269 11.319813l100.266611 100.990089C597.247546 26.853993 597.160565 51.162632 582.168106 66.047644zM725.919091 726.096515c-58.45432 0-106.947777-24.098861-130.712017-44.734854-64.075341-55.640228-230.29199-227.095181-275.626501-274.064936 21.218254-18.551518 68.658729-54.581106 117.02018-54.581106 2.416026 0 4.837168 0.092098 7.194866 0.274246l0.712221 0.039909c0.546446 0.021489 59.598376 2.815115 104.092753 45.760207l0.236384 0.223081 102.697987 95.274924 202.171536-210.722282c17.942651 19.192108 51.29527 55.145971 63.774489 70.458725 17.09126 20.971637 38.084387 64.522526 41.001833 118.244055 2.427282 44.696991-7.615445 111.785969-69.25327 177.571255C841.818751 700.439158 786.872325 726.096515 725.919091 726.096515zM865.064174 222.344363l-0.301875 0.310062L761.91798 331.470759l0.164752 0.155543-111.8883 116.621091-78.904071-73.201186c-52.287877-50.377364-118.877481-54.538127-125.273145-54.82363-3.098571-0.231267-6.264681-0.348947-9.416464-0.348947-78.899978 0-149.302421 72.349795-152.259776 75.429946l-10.92584 11.375072 10.924817 11.375072c6.29845 6.557346 115.513874 120.197546 203.940832 207.302393-18.995633 18.62315-32.653701 31.649837-40.653909 38.768979-23.986297 21.349237-74.068949 47.750537-136.272663 51.889811-46.947242 3.127224-115.485221-6.049786-175.361937-67.50444-83.689051-85.896322-94.072539-187.095165-30.027897-292.656363 0.962931-1.588171 1.762133-2.908236 2.366907-3.946892 14.930037-25.65838 80.858586-87.48961 80.858586-87.48961l60.648288 58.979276c13.459546 13.556761 31.392988 21.021779 50.496068 21.021779 18.908652 0 36.713156-7.337105 50.132794-20.660552 13.487176-13.390985 20.953218-31.233352 21.021779-50.240241 0.01228-3.330862-0.216941-6.624884-0.652869-9.870812 5.184069 1.183965 10.533914 1.812275 15.985066 1.812275 18.908652 0 36.713156-7.337105 50.131771-20.660552 13.487176-13.390985 20.953218-31.233352 21.021779-50.240241 0.00921-2.670829-0.143263-5.317099-0.421602-7.93574 4.349051 0.818645 8.803503 1.251503 13.32754 1.251503 18.908652 0 36.713156-7.337105 50.131771-20.660552 16.031115-15.917528 22.865777-37.633109 20.520359-58.509579 4.448312 0.858554 9.010211 1.306762 13.643742 1.306762 18.908652 0 36.712133-7.337105 50.131771-20.660552 27.495214-27.299763 27.977191-71.650877 1.363044-99.567693l14.224979-14.262842c6.946202-6.972808 16.739243-10.440793 27.579125-9.768481 11.628852 0.719384 22.955828 6.019087 31.891338 14.921851 8.937556 8.903787 14.280238 20.210297 15.043624 31.837102 0.711198 10.837836-2.718925 20.643156-9.660011 27.608801l-0.180102 0.184195L555.342134 175.184273l-1.047866 1.050935 23.25361 23.190165 133.309168-133.671419c6.946202-6.973832 16.741289-10.438747 27.579125-9.769504 11.627828 0.719384 22.954805 6.02011 31.892361 14.922874 17.880229 17.812691 20.295232 44.480051 5.383614 59.446927L645.270283 260.969055l10.025331 10.012028 13.071713 13.821797 134.582161-127.266545 0.172939-0.172939c14.858406-14.916734 41.49609-12.580526 59.477626 5.170766C878.338502 179.378805 879.532701 207.820578 865.064174 222.344363zM497.873258 143.911012c-7.225565 7.173376-16.811898 11.124362-26.993794 11.124362-10.287297 0-19.944238-4.019547-27.191292-11.31879l-100.266611-100.991112c-7.211239-7.262404-11.161201-16.898879-11.124362-27.131941s4.056386-19.841907 11.31879-27.052123c7.225565-7.1744 16.811898-11.124362 26.993794-11.124362 10.287297 0 19.944238 4.019547 27.191292 11.31879l100.267635 100.991112C512.952698 104.718385 512.864694 129.024977 497.873258 143.911012zM338.646813 273.401202c-0.036839 10.234085-4.056386 19.841907-11.31879 27.052123-7.226588 7.173376-16.812921 11.125385-26.993794 11.125385-10.287297 0-19.943215-4.02057-27.191292-11.319813l-100.267635-100.991112c-7.210215-7.262404-11.161201-16.898879-11.124362-27.131941s4.056386-19.841907 11.31879-27.052123c7.225565-7.1744 16.811898-11.124362 26.993794-11.124362 10.287297 0 19.944238 4.019547 27.191292 11.31879l100.267635 100.991112C334.732667 253.531666 338.683652 263.167117 338.646813 273.401202zM425.13256 194.442896c-0.036839 10.234085-4.056386 19.841907-11.31879 27.052123-7.225565 7.1744-16.811898 11.124362-26.993794 11.124362-10.287297 0-19.944238-4.019547-27.191292-11.31879L259.361049 120.309478c-7.211239-7.263427-11.161201-16.898879-11.124362-27.131941s4.056386-19.841907 11.31879-27.052123c7.226588-7.1744 16.812921-11.125385 26.994818-11.125385 10.287297 0 19.943215 4.02057 27.190269 11.319813l100.266611 100.991112C421.218414 174.572336 425.169399 184.20881 425.13256 194.442896z"  horiz-adv-x="1024" />

    
    <glyph glyph-name="text" unicode="&#58905;" d="M831.273414 812c49.536524 0 87.076176-14.509625 112.620373-43.534545 25.538528-29.026337 38.309209-64.44014 38.309209-106.231489l0-616.491844c0-19.348057-8.126411-36.764426-24.380649-52.243438L763.937868-192.263636c-10.065185-8.514732-18.5785-13.92856-25.54278-16.254238-6.96428-2.320009-15.865917-3.48214-26.700658-3.48214l-521.28784 0c-17.803273 0-35.607964 3.676301-53.405569 11.027485-17.804691 7.356853-33.670607 17.804691-47.604836 31.350598-13.92856 13.541656-25.344367 29.794477-34.246004 48.761298-8.901637 18.961152-13.353164 40.053822-13.353164 63.272341l0 719.822258c0 45.666062 12.577938 82.043584 37.733813 109.132564 25.155875 27.087563 60.952331 40.63347 107.387951 40.63347L831.273414 812 831.273414 812zM587.464089 84.057c10.065185 0 18.5785 3.48214 25.54278 10.44642s10.44642 15.479012 10.44642 25.54278c0 10.834742-3.48214 19.542218-10.44642 26.119593-6.96428 6.583045-15.479012 9.871024-25.54278 9.871024l-363.393978 0c-10.058098 0-18.572831-3.287979-25.537111-9.871024-6.969949-6.577376-10.452089-15.284851-10.452089-26.119593 0-10.065185 3.48214-18.5785 10.452089-25.54278 6.96428-6.96428 15.479012-10.44642 25.537111-10.44642L587.464089 84.057 587.464089 84.057zM732.592939 302.323545c10.059516 0 18.572831 3.48214 25.538528 10.44642 6.969949 6.969949 10.452089 15.483264 10.452089 25.54278 0 10.065185-3.48214 18.5785-10.452089 25.54278-6.96428 6.965697-15.479012 10.447837-25.538528 10.447837l-508.52141 0c-10.058098 0-18.572831-3.48214-25.537111-10.447837-6.969949-6.96428-10.452089-15.477595-10.452089-25.54278 0-10.059516 3.48214-18.572831 10.452089-25.54278 6.96428-6.96428 15.479012-10.44642 25.537111-10.44642L732.592939 302.323545 732.592939 302.323545zM804.572756 519.430794c10.059516 0 18.572831 3.48214 25.54278 10.44642 6.96428 6.96428 10.44642 15.865917 10.44642 26.706327 0 10.058098-3.48214 18.572831-10.44642 25.537111-6.969949 6.969949-15.484681 10.452089-25.54278 10.452089l-580.501227 0c-10.058098 0-18.572831-3.48214-25.537111-10.452089-6.969949-6.96428-10.452089-15.479012-10.452089-25.537111 0-10.840411 3.48214-19.742047 10.452089-26.706327 6.96428-6.96428 15.479012-10.44642 25.537111-10.44642L804.572756 519.430794 804.572756 519.430794zM804.572756 519.430794"  horiz-adv-x="1024" />

    
    <glyph glyph-name="loading" unicode="&#58906;" d="M511.573333 811.146667c-278.506667 0-505.024-222.592-511.424-499.562667C6.058667 553.269333 189.824 747.189333 415.658667 747.189333c229.546667 0 415.658667-200.426667 415.658667-447.616 0-52.970667 42.944-95.936 95.914667-95.936 52.949333 0 95.914667 42.965333 95.914667 95.936C1023.146667 582.112 794.112 811.146667 511.573333 811.146667zM511.573333-212c278.506667 0 505.024 222.592 511.402667 499.562667-5.888-241.664-189.653333-435.626667-415.488-435.626667-229.546667 0-415.658667 200.448-415.658667 447.637333 0 52.949333-42.965333 95.914667-95.936 95.914667C42.965333 395.488 0 352.544 0 299.573333 0 17.034667 229.034667-212 511.573333-212z"  horiz-adv-x="1024" />

    
    <glyph glyph-name="user1" unicode="&#58907;" d="M926.26863-145.936375l-55.567573 0C859.981924-4.071344 768.64366 114.848093 642.9264 164.776226c-39.952944-19.377326-84.538395-30.569226-131.806955-30.569226-47.273676 0-91.879594 11.192923-131.830491 30.569226-125.716236-49.928133-217.054501-168.847569-227.756237-310.713624l-55.584969 0c9.907651 151.502529 99.44899 280.826943 226.671533 346.280678C251.660158 256.772476 205.943954 344.125987 205.943954 442.393058c0 170.193217 136.641053 308.165592 305.176514 308.165592 168.520111 0 305.160141-137.973398 305.160141-308.165592 0-98.267071-45.716204-185.620581-116.67328-242.049778C826.829873 134.889545 916.358933 5.565131 926.26863-145.936375zM760.786715 442.393058c0 139.254577-111.795179 252.137531-249.666246 252.137531-137.89665 0-249.693876-112.882953-249.693876-252.137531 0-139.248438 111.797225-252.144694 249.693876-252.144694C648.991536 190.248364 760.786715 303.14462 760.786715 442.393058z"  horiz-adv-x="1024" />

    
    <glyph glyph-name="moreb" unicode="&#58908;" d="M487.869864 812M220.683248 49.316606c-56.12646 0-101.633967-45.490575-101.633967-101.609015 0-56.143392 45.506616-101.633076 101.633967-101.633076 56.110419 0 101.633967 45.489684 101.633967 101.633076C322.317215 3.826922 276.793667 49.316606 220.683248 49.316606zM220.683248 625.241526c-56.12646 0-101.633967-45.490575-101.633967-101.617035s45.506616-101.633967 101.633967-101.633967c56.110419 0 101.633967 45.506616 101.633967 101.633967S276.793667 625.241526 220.683248 625.241526zM220.683248 337.99065c-56.12646 0-101.633967-45.490575-101.633967-101.617035s45.506616-101.633967 101.633967-101.633967c56.110419 0 101.633967 45.506616 101.633967 101.633967S276.793667 337.99065 220.683248 337.99065zM508.644372 49.316606c-56.12646 0-101.633076-45.490575-101.633076-101.609015 0-56.143392 45.506616-101.633076 101.633076-101.633076 56.110419 0 101.633967 45.489684 101.633967 101.633076C610.278338 3.826922 564.754791 49.316606 508.644372 49.316606zM508.644372 625.241526c-56.12646 0-101.633076-45.490575-101.633076-101.617035s45.506616-101.633967 101.633076-101.633967c56.110419 0 101.633967 45.506616 101.633967 101.633967S564.754791 625.241526 508.644372 625.241526zM508.644372 337.99065c-56.12646 0-101.633076-45.490575-101.633076-101.617035s45.506616-101.633967 101.633076-101.633967c56.110419 0 101.633967 45.506616 101.633967 101.633967S564.754791 337.99065 508.644372 337.99065zM796.607277 49.316606c-56.12646 0-101.633967-45.490575-101.633967-101.609015 0-56.143392 45.506616-101.633076 101.633967-101.633076 56.109528 0 101.633967 45.489684 101.633967 101.633076C898.241244 3.826922 852.716806 49.316606 796.607277 49.316606zM796.607277 421.990525c56.109528 0 101.633967 45.506616 101.633967 101.633967S852.716806 625.241526 796.607277 625.241526c-56.12646 0-101.633967-45.490575-101.633967-101.617035S740.480818 421.990525 796.607277 421.990525zM796.607277 337.99065c-56.12646 0-101.633967-45.490575-101.633967-101.617035s45.506616-101.633967 101.633967-101.633967c56.109528 0 101.633967 45.506616 101.633967 101.633967S852.716806 337.99065 796.607277 337.99065z"  horiz-adv-x="1024" />

    
    </font>
</defs>
</svg>
